<?xml version="1.0" encoding="UTF-8" standalone="no"?>
<!-- Created with Inkscape (http://www.inkscape.org/) -->

<svg
   width="34.757622mm"
   height="27.024994mm"
   viewBox="0 0 34.757622 27.024994"
   version="1.1"
   id="svg5"
   xmlns:inkscape="http://www.inkscape.org/namespaces/inkscape"
   xmlns:sodipodi="http://sodipodi.sourceforge.net/DTD/sodipodi-0.dtd"
   xmlns="http://www.w3.org/2000/svg"
   xmlns:svg="http://www.w3.org/2000/svg">
  <sodipodi:namedview
     id="namedview7"
     pagecolor="#ffffff"
     bordercolor="#000000"
     borderopacity="0.25"
     inkscape:showpageshadow="2"
     inkscape:pageopacity="0.0"
     inkscape:pagecheckerboard="0"
     inkscape:deskcolor="#d1d1d1"
     inkscape:document-units="mm"
     showgrid="false" />
  <defs
     id="defs2">
    <inkscape:path-effect
       effect="powerstroke"
       id="path-effect854"
       is_visible="true"
       lpeversion="1"
       offset_points="0.12294929,0.47022013"
       not_jump="true"
       sort_points="true"
       interpolator_type="CentripetalCatmullRom"
       interpolator_beta="0.75"
       start_linecap_type="peak"
       linejoin_type="spiro"
       miter_limit="4"
       scale_width="1"
       end_linecap_type="peak" />
    <inkscape:path-effect
       effect="simplify"
       id="path-effect852"
       is_visible="true"
       lpeversion="1"
       steps="1"
       threshold="0.6"
       smooth_angles="0"
       helper_size="0"
       simplify_individual_paths="false"
       simplify_just_coalesce="false"
       step="1" />
    <inkscape:path-effect
       effect="powerstroke"
       id="path-effect847"
       is_visible="true"
       lpeversion="1"
       offset_points="0.14650076,0.47022013"
       not_jump="true"
       sort_points="true"
       interpolator_type="CentripetalCatmullRom"
       interpolator_beta="0.75"
       start_linecap_type="peak"
       linejoin_type="spiro"
       miter_limit="4"
       scale_width="1"
       end_linecap_type="peak" />
    <inkscape:path-effect
       effect="simplify"
       id="path-effect845"
       is_visible="true"
       lpeversion="1"
       steps="1"
       threshold="0.6"
       smooth_angles="0"
       helper_size="0"
       simplify_individual_paths="false"
       simplify_just_coalesce="false"
       step="1" />
    <inkscape:path-effect
       effect="powerstroke"
       id="path-effect840"
       is_visible="true"
       lpeversion="1"
       offset_points="0.23241734,0.47022013"
       not_jump="true"
       sort_points="true"
       interpolator_type="CentripetalCatmullRom"
       interpolator_beta="0.75"
       start_linecap_type="peak"
       linejoin_type="spiro"
       miter_limit="4"
       scale_width="1"
       end_linecap_type="peak" />
    <inkscape:path-effect
       effect="simplify"
       id="path-effect838"
       is_visible="true"
       lpeversion="1"
       steps="1"
       threshold="0.6"
       smooth_angles="0"
       helper_size="0"
       simplify_individual_paths="false"
       simplify_just_coalesce="false"
       step="1" />
    <inkscape:path-effect
       effect="powerstroke"
       id="path-effect826"
       is_visible="true"
       lpeversion="1"
       offset_points="0.20075632,0.47022013"
       not_jump="true"
       sort_points="true"
       interpolator_type="CentripetalCatmullRom"
       interpolator_beta="0.75"
       start_linecap_type="peak"
       linejoin_type="spiro"
       miter_limit="4"
       scale_width="1"
       end_linecap_type="peak" />
    <inkscape:path-effect
       effect="simplify"
       id="path-effect824"
       is_visible="true"
       lpeversion="1"
       steps="1"
       threshold="0.6"
       smooth_angles="0"
       helper_size="0"
       simplify_individual_paths="false"
       simplify_just_coalesce="false"
       step="1" />
    <inkscape:path-effect
       effect="powerstroke"
       id="path-effect659"
       is_visible="true"
       lpeversion="1"
       offset_points="0.42410591,0.47022013"
       not_jump="true"
       sort_points="true"
       interpolator_type="CentripetalCatmullRom"
       interpolator_beta="0.75"
       start_linecap_type="peak"
       linejoin_type="spiro"
       miter_limit="4"
       scale_width="1"
       end_linecap_type="peak" />
    <inkscape:path-effect
       effect="simplify"
       id="path-effect657"
       is_visible="true"
       lpeversion="1"
       steps="1"
       threshold="0.6"
       smooth_angles="0"
       helper_size="0"
       simplify_individual_paths="false"
       simplify_just_coalesce="false"
       step="1" />
    <inkscape:path-effect
       effect="powerstroke"
       id="path-effect652"
       is_visible="true"
       lpeversion="1"
       offset_points="0.13526038,0.47022013"
       not_jump="true"
       sort_points="true"
       interpolator_type="CentripetalCatmullRom"
       interpolator_beta="0.75"
       start_linecap_type="peak"
       linejoin_type="spiro"
       miter_limit="4"
       scale_width="1"
       end_linecap_type="peak" />
    <inkscape:path-effect
       effect="simplify"
       id="path-effect650"
       is_visible="true"
       lpeversion="1"
       steps="1"
       threshold="0.6"
       smooth_angles="0"
       helper_size="0"
       simplify_individual_paths="false"
       simplify_just_coalesce="false"
       step="1" />
    <inkscape:path-effect
       effect="powerstroke"
       id="path-effect645"
       is_visible="true"
       lpeversion="1"
       offset_points="0.1570371,0.3345523"
       not_jump="true"
       sort_points="true"
       interpolator_type="CentripetalCatmullRom"
       interpolator_beta="0.75"
       start_linecap_type="peak"
       linejoin_type="spiro"
       miter_limit="4"
       scale_width="1"
       end_linecap_type="peak" />
    <inkscape:path-effect
       effect="simplify"
       id="path-effect643"
       is_visible="true"
       lpeversion="1"
       steps="1"
       threshold="0.6"
       smooth_angles="0"
       helper_size="0"
       simplify_individual_paths="false"
       simplify_just_coalesce="false"
       step="1" />
    <inkscape:path-effect
       effect="powerstroke"
       id="path-effect423"
       is_visible="true"
       lpeversion="1"
       offset_points="0.10017332,0.50141274"
       not_jump="true"
       sort_points="true"
       interpolator_type="CentripetalCatmullRom"
       interpolator_beta="0.75"
       start_linecap_type="peak"
       linejoin_type="spiro"
       miter_limit="4"
       scale_width="1"
       end_linecap_type="peak" />
    <inkscape:path-effect
       effect="simplify"
       id="path-effect421"
       is_visible="true"
       lpeversion="1"
       steps="1"
       threshold="0.6"
       smooth_angles="0"
       helper_size="0"
       simplify_individual_paths="false"
       simplify_just_coalesce="false"
       step="1" />
    <inkscape:path-effect
       effect="powerstroke"
       id="path-effect416"
       is_visible="true"
       lpeversion="1"
       offset_points="0.1090468,0.50913813"
       not_jump="true"
       sort_points="true"
       interpolator_type="CentripetalCatmullRom"
       interpolator_beta="0.75"
       start_linecap_type="peak"
       linejoin_type="spiro"
       miter_limit="4"
       scale_width="1"
       end_linecap_type="peak" />
    <inkscape:path-effect
       effect="simplify"
       id="path-effect414"
       is_visible="true"
       lpeversion="1"
       steps="1"
       threshold="0.6"
       smooth_angles="0"
       helper_size="0"
       simplify_individual_paths="false"
       simplify_just_coalesce="false"
       step="1" />
    <inkscape:path-effect
       effect="powerstroke"
       id="path-effect381"
       is_visible="true"
       lpeversion="1"
       offset_points="0.14301437,0.47022013"
       not_jump="true"
       sort_points="true"
       interpolator_type="CentripetalCatmullRom"
       interpolator_beta="0.75"
       start_linecap_type="peak"
       linejoin_type="spiro"
       miter_limit="4"
       scale_width="1"
       end_linecap_type="peak" />
    <inkscape:path-effect
       effect="simplify"
       id="path-effect379"
       is_visible="true"
       lpeversion="1"
       steps="1"
       threshold="0.6"
       smooth_angles="0"
       helper_size="0"
       simplify_individual_paths="false"
       simplify_just_coalesce="false"
       step="1" />
    <inkscape:path-effect
       effect="powerstroke"
       id="path-effect360"
       is_visible="true"
       lpeversion="1"
       offset_points="0.16216783,0.47022013"
       not_jump="true"
       sort_points="true"
       interpolator_type="CentripetalCatmullRom"
       interpolator_beta="0.75"
       start_linecap_type="peak"
       linejoin_type="spiro"
       miter_limit="4"
       scale_width="1"
       end_linecap_type="peak" />
    <inkscape:path-effect
       effect="simplify"
       id="path-effect358"
       is_visible="true"
       lpeversion="1"
       steps="1"
       threshold="0.6"
       smooth_angles="0"
       helper_size="0"
       simplify_individual_paths="false"
       simplify_just_coalesce="false"
       step="1" />
    <inkscape:path-effect
       effect="powerstroke"
       id="path-effect353"
       is_visible="true"
       lpeversion="1"
       offset_points="0.11917935,0.47022013"
       not_jump="true"
       sort_points="true"
       interpolator_type="CentripetalCatmullRom"
       interpolator_beta="0.75"
       start_linecap_type="peak"
       linejoin_type="spiro"
       miter_limit="4"
       scale_width="1"
       end_linecap_type="peak" />
    <inkscape:path-effect
       effect="simplify"
       id="path-effect351"
       is_visible="true"
       lpeversion="1"
       steps="1"
       threshold="0.6"
       smooth_angles="0"
       helper_size="0"
       simplify_individual_paths="false"
       simplify_just_coalesce="false"
       step="1" />
  </defs>
  <g
     inkscape:label="Camada 1"
     inkscape:groupmode="layer"
     id="layer1"
     transform="translate(73.828859,-96.852719)">
    <g
       id="g968"
       style="fill:#ffffff;fill-opacity:1">
      <g
         id="g977">
        <g
           id="g995"
           transform="translate(-0.26869718)">
          <g
             id="g1020"
             transform="matrix(0.7221989,0,0,0.7221989,-20.434182,35.01142)">
            <g
               id="g986"
               style="fill:#ffffff;fill-opacity:1"
               transform="translate(0.26869718)">
              <g
                 id="g793"
                 transform="rotate(6.2201328,-24.22285,-640.99886)"
                 style="fill:#ffffff;fill-opacity:1" />
            </g>
            <g
               id="g1041"
               inkscape:export-filename="g1041.svg"
               inkscape:export-xdpi="96"
               inkscape:export-ydpi="96"
               style="fill:#191031;fill-opacity:1">
              <g
                 id="g2254">
                <path
                   d="m 13.499687,102.39628 c -0.247556,-1.29222 -0.684298,-3.562689 -1.074683,-5.512034 -0.230223,-1.149594 -0.455219,-2.242845 -0.641939,-3.085285 -0.01661,-0.07493 -0.0333,-0.149644 -0.04999,-0.223599 -0.07688,-0.340665 -0.154191,-0.66776 -0.223428,-0.930229 -0.03002,-0.113812 -0.05922,-0.218118 -0.08695,-0.308105 -0.02526,-0.08198 -0.05199,-0.160923 -0.07985,-0.227453 -0.01326,-0.03166 -0.03018,-0.06877 -0.05118,-0.105552 -0.01048,-0.01837 -0.02427,-0.0407 -0.04169,-0.06426 -0.01643,-0.02223 -0.04207,-0.05372 -0.07807,-0.08536 -0.03409,-0.02997 -0.09428,-0.07498 -0.180869,-0.101785 -0.0446,-0.01381 -0.0963,-0.02275 -0.153106,-0.02158 -0.05699,0.0012 -0.112559,0.01242 -0.164397,0.03251 -0.05091,0.01974 -0.09322,0.04604 -0.127227,0.07318 -0.03344,0.02669 -0.05921,0.05443 -0.07863,0.0789 -0.03724,0.04691 -0.05922,0.09197 -0.07185,0.122009 -0.01313,0.03125 -0.02171,0.05976 -0.02746,0.082 -0.0058,0.02263 -0.01008,0.04395 -0.01324,0.06277 -0.0062,0.03658 -0.0099,0.07335 -0.0123,0.107543 -0.0047,0.06654 -0.0059,0.143935 -0.0049,0.22886 0.0019,0.163304 0.01251,0.379043 0.03085,0.647218 0.01752,0.256089 0.04231,0.562251 0.07406,0.919971 0.06052,0.681794 0.144033,1.525426 0.247733,2.545988 0.185941,1.829934 0.453638,4.384695 0.685792,6.900525 0.23151,2.50886 0.43765,5.07707 0.540033,7.31346 0.05195,1.13479 0.07621,2.16321 0.06586,3.05092 -0.0053,0.45359 -0.01958,0.8663 -0.0433,1.23544 -0.02429,0.37802 -0.05816,0.70547 -0.101218,0.98195 -0.04459,0.28632 -0.09723,0.50615 -0.15381,0.66661 -0.02878,0.0816 -0.05647,0.14178 -0.08087,0.18462 -0.02519,0.0442 -0.04258,0.0624 -0.04721,0.0667 -0.0038,0.004 0.01229,-0.0102 0.03806,-0.0173 0.03042,-0.008 0.05399,-0.005 0.06111,-0.003 0.0049,0.001 -0.01451,-0.004 -0.0503,-0.0285 -0.03835,-0.0264 -0.08892,-0.0691 -0.151113,-0.13462 -0.133243,-0.14028 -0.289909,-0.35283 -0.466663,-0.64099 -0.192819,-0.31435 -0.397859,-0.69938 -0.610804,-1.13926 -0.5492648,-1.13463 -1.117988,-2.56589 -1.5992282,-3.85418 l -0.605035,-0.27595 -0.2759468,0.60503 c 0.4838798,1.29537 1.06485,2.7597 1.6337352,3.93486 0.2210998,0.45673 0.441102,0.87147 0.6556288,1.22122 0.193413,0.31532 0.389396,0.58949 0.586436,0.79694 0.09375,0.0987 0.193716,0.18869 0.300127,0.26186 0.1027,0.0706 0.220898,0.13213 0.353234,0.1655 0.132243,0.0333 0.275115,0.0374 0.418824,-0.002 0.139046,-0.0383 0.256222,-0.11134 0.351824,-0.2001 0.09183,-0.0853 0.165026,-0.18602 0.224483,-0.29039 0.05859,-0.10284 0.108073,-0.21668 0.150637,-0.33739 0.08259,-0.23423 0.146433,-0.5155 0.19613,-0.83464 0.04858,-0.31195 0.08494,-0.66881 0.110481,-1.06634 0.025,-0.3891 0.03974,-0.81869 0.04518,-1.28478 0.01064,-0.91148 -0.01431,-1.95901 -0.06677,-3.1049 -0.103367,-2.25788 -0.311035,-4.84278 -0.543027,-7.35686 -0.232682,-2.52156 -0.501102,-5.083301 -0.686631,-6.909184 -0.103676,-1.020322 -0.186653,-1.85878 -0.2466,-2.534074 -0.03144,-0.354176 -0.05564,-0.653518 -0.07257,-0.901 -0.0179,-0.261665 -0.02709,-0.457167 -0.02873,-0.594242 -8.61e-4,-0.07222 4.91e-4,-0.12097 0.0026,-0.151083 0.001,-0.01426 0.0023,-0.02193 0.0016,-0.01813 -2.47e-4,0.0015 -0.0013,0.0074 -0.0036,0.01653 -0.0022,0.0086 -0.007,0.02549 -0.01605,0.04701 -0.0085,0.02022 -0.02606,0.05743 -0.05861,0.09842 -0.01706,0.02149 -0.04039,0.04675 -0.07132,0.07143 -0.03148,0.02513 -0.0712,0.04991 -0.119445,0.06861 -0.04916,0.01906 -0.101982,0.02975 -0.15614,0.03087 -0.05398,0.0011 -0.102762,-0.0074 -0.14438,-0.02028 -0.08057,-0.02494 -0.134462,-0.06611 -0.161969,-0.09029 -0.02934,-0.02579 -0.04802,-0.04943 -0.05722,-0.06188 -0.01009,-0.01365 -0.01627,-0.0241 -0.01886,-0.02864 -0.0049,-0.0086 -0.0046,-0.0094 5.16e-4,0.0027 0.0105,0.02506 0.02682,0.07059 0.04854,0.141095 0.02264,0.07346 0.04824,0.164453 0.07635,0.271037 0.06494,0.24619 0.139364,0.560494 0.215392,0.897383 0.0164,0.07266 0.03283,0.146198 0.04921,0.220072 0.184571,0.832743 0.408059,1.918435 0.637966,3.066451 0.389542,1.945134 0.825637,4.212205 1.07317,5.504305 l 0.550295,0.37335 z"
                   id="path-1-5"
                   inkscape:path-effect="#path-effect351;#path-effect353"
                   inkscape:original-d="m 13.037865,102.48475 c -1.744257,-0.79246 -6.1220127,-3.433475 -6.0956163,-5.632457 0.016022,-1.334933 2.3686086,-2.020664 3.2669483,-2.680685 0.714694,-0.525091 1.115271,-1.014444 1.509549,-1.785006 0.05435,-0.106333 0.262232,-0.334836 0.142979,-0.328492 -0.449426,0.02389 -0.333114,0.842554 -0.412986,1.285469 -0.391688,2.171956 -0.156905,3.43668 0.04222,6.074666 0.280351,3.714055 1.164284,7.295215 1.20804,11.026625 0.0132,1.12535 -0.0071,2.25328 -0.101336,3.37476 -0.06578,0.78289 -0.222706,1.55628 -0.377688,2.32649 -0.168683,0.8383 -0.452928,2.41496 -1.374257,2.82072 -0.8812036,0.38809 -2.5906358,-1.83455 -2.8970797,-2.43315 -0.7891994,-1.54161 -0.2571846,-3.67318 0.3877466,-5.15491"
                   style="fill:#191031;fill-opacity:1;fill-rule:nonzero;stroke:none;stroke-width:0.944882;stroke-linecap:round;stroke-linejoin:round;stroke-miterlimit:0.6"
                   transform="rotate(6.2201329,-24.088574,-638.52623)" />
                <path
                   d="m 12.709756,101.60117 c 0.03799,0.286 0.101173,0.71717 0.190935,1.11476 0.05954,0.2637 0.133174,0.52464 0.226561,0.7359 0.04094,0.0926 0.09001,0.18572 0.150114,0.26926 0.01122,0.0156 0.02302,0.0311 0.03544,0.0465 0.04624,0.0572 0.112526,0.1261 0.202439,0.18128 0.05069,0.0311 0.111206,0.0593 0.181124,0.077 0.06604,0.0168 0.136371,0.0232 0.208751,0.0166 0.0681,-0.006 0.13208,-0.0233 0.190656,-0.048 0.05534,-0.0234 0.104336,-0.0529 0.147209,-0.0847 0.07948,-0.0591 0.143576,-0.13053 0.195541,-0.20137 0.04941,-0.0674 0.09344,-0.14183 0.133145,-0.21998 0.07387,-0.14538 0.140419,-0.31867 0.200146,-0.511 0.05646,-0.18181 0.107924,-0.38423 0.153143,-0.60007 0.04351,-0.2077 0.08113,-0.42749 0.110934,-0.64968 0.02922,-0.21781 0.05091,-0.43773 0.0631,-0.64918 0.01213,-0.21046 0.01495,-0.41437 0.006,-0.60052 -0.009,-0.18605 -0.03029,-0.36681 -0.07179,-0.524192 -0.02132,-0.08089 -0.0505,-0.165396 -0.09212,-0.245356 -0.04189,-0.08047 -0.104953,-0.172772 -0.20106,-0.24781 -0.05013,-0.03914 -0.108646,-0.07303 -0.175369,-0.09685 -0.06812,-0.02432 -0.138493,-0.03588 -0.208428,-0.03571 -0.07044,1.72e-4 -0.135577,0.0122 -0.193535,0.03031 -0.05866,0.01833 -0.111005,0.04319 -0.156618,0.06982 -0.09233,0.05389 -0.171553,0.123534 -0.237995,0.192548 -0.07159,0.07436 -0.139662,0.159908 -0.204108,0.250701 -0.145016,0.204304 -0.290037,0.461444 -0.428917,0.736984 -0.187837,0.37268 -0.366884,0.78429 -0.512432,1.13646 l 0.254964,0.61417 0.614172,-0.25497 c 0.141594,-0.3426 0.310444,-0.72983 0.483097,-1.07238 0.129412,-0.25676 0.250129,-0.46676 0.356003,-0.61592 0.04629,-0.0652 0.08474,-0.11166 0.114721,-0.1428 0.02723,-0.0283 0.04454,-0.0384 0.0346,-0.0326 -0.0043,0.003 -0.01679,0.009 -0.03699,0.0156 -0.02023,0.006 -0.04907,0.0124 -0.08467,0.0125 -0.03569,8e-5 -0.07326,-0.006 -0.110046,-0.019 -0.03587,-0.0128 -0.065,-0.0303 -0.08721,-0.0476 -0.04275,-0.0334 -0.05381,-0.0582 -0.05434,-0.0592 -5.15e-4,-9.9e-4 0.0082,0.0176 0.01691,0.0508 0.01845,0.07 0.03453,0.17917 0.04181,0.32983 0.007,0.14559 0.0052,0.31537 -0.0055,0.50103 -0.01069,0.18554 -0.02994,0.38171 -0.05631,0.57824 -0.02688,0.20037 -0.06068,0.39752 -0.0993,0.58189 -0.04024,0.19211 -0.08471,0.36555 -0.130817,0.51401 -0.04966,0.15992 -0.09791,0.2802 -0.140426,0.36388 -0.02255,0.0444 -0.04071,0.073 -0.05302,0.0897 -0.01383,0.0189 -0.01449,0.0149 0.0016,0.003 0.0094,-0.007 0.02523,-0.0173 0.04802,-0.0269 0.02444,-0.0103 0.05497,-0.019 0.09034,-0.0222 0.03774,-0.003 0.07434,2e-5 0.107568,0.008 0.03481,0.009 0.06139,0.022 0.07935,0.033 0.03285,0.0202 0.03891,0.0314 0.03684,0.0288 -5.47e-4,-6.8e-4 -0.0016,-0.002 -0.0032,-0.004 -0.01032,-0.0143 -0.02909,-0.0454 -0.05335,-0.10024 -0.057,-0.12894 -0.114807,-0.32117 -0.169352,-0.56277 -0.08024,-0.3554 -0.139037,-0.75297 -0.176037,-1.03149 l -0.528046,-0.40421 z"
                   id="path-1-1"
                   inkscape:path-effect="#path-effect358;#path-effect360"
                   inkscape:original-d="m 13.175881,101.53925 c -0.599167,0.48363 -0.611529,1.42538 -0.208491,2.04453 0.213184,0.32751 1.334504,-0.0967 1.567343,-0.21978 1.059845,-0.56038 1.043693,-1.99985 0.584313,-2.95965 -0.139124,-0.29067 -0.166001,-0.26801 -0.378407,-0.444684 -1.363799,-1.134358 -2.23708,0.917754 -1.68349,1.964744"
                   style="fill:#191031;fill-opacity:1;fill-rule:nonzero;stroke:none;stroke-width:0.944882;stroke-linecap:round;stroke-linejoin:round;stroke-miterlimit:0.6"
                   transform="rotate(6.2201329,-24.088574,-638.52623)" />
                <path
                   d="m 15.113215,100.05096 c 0.130915,0.51572 0.414631,1.63175 0.598065,2.27586 0.01944,0.0683 0.03833,0.13337 0.05653,0.1946 0.01236,0.0416 0.02501,0.0834 0.03771,0.12439 0.02567,0.0829 0.05254,0.16547 0.07872,0.23786 0.01175,0.0325 0.02404,0.0648 0.03669,0.0955 0.01172,0.0284 0.02529,0.0591 0.04061,0.0892 0.0134,0.0263 0.03457,0.065 0.06428,0.10452 0.01476,0.0196 0.03689,0.0465 0.06706,0.0742 0.0283,0.026 0.07646,0.0644 0.145087,0.0931 0.03511,0.0147 0.0775,0.0275 0.126145,0.0336 0.04884,0.006 0.100897,0.005 0.153966,-0.005 0.05256,-0.0105 0.100265,-0.0291 0.142091,-0.0526 0.04096,-0.023 0.07411,-0.0495 0.10027,-0.075 0.05001,-0.0486 0.07991,-0.0984 0.09695,-0.1319 0.01746,-0.0343 0.02851,-0.0654 0.03558,-0.0885 0.01353,-0.0443 0.02024,-0.0852 0.02407,-0.11442 0.004,-0.0306 0.0064,-0.0612 0.0079,-0.0902 0.003,-0.0559 0.0034,-0.11935 0.0023,-0.18761 -0.001,-0.0667 -0.0036,-0.14234 -0.0073,-0.22623 -0.0072,-0.16204 -0.01874,-0.35631 -0.03289,-0.5837 -0.01344,-0.21617 -0.02963,-0.46886 -0.04523,-0.73542 -0.03114,-0.53205 -0.06108,-1.137694 -0.07111,-1.758493 -0.01044,-0.645905 0.0014,-1.26912 0.04758,-1.835561 0.05252,-0.643528 0.143845,-1.142664 0.263954,-1.515689 0.07135,-0.221605 0.147215,-0.380978 0.218533,-0.495541 0.09359,-0.150343 0.177733,-0.220835 0.230668,-0.256121 l 0.130451,-0.652071 -0.652071,-0.130451 c -0.167377,0.111572 -0.344833,0.280446 -0.507429,0.541635 -0.119454,0.191887 -0.22513,0.42417 -0.315333,0.704313 -0.14991,0.46558 -0.250163,1.042088 -0.306097,1.727423 -0.04951,0.606637 -0.06133,1.262329 -0.05058,1.927261 0.01034,0.63997 0.04113,1.260585 0.07259,1.798235 0.01573,0.26885 0.03213,0.52491 0.04544,0.73886 0.01417,0.22775 0.02524,0.4143 0.03199,0.56688 0.0035,0.0786 0.0056,0.1446 0.0065,0.19932 8.98e-4,0.0577 2.45e-4,0.0974 -0.0011,0.12301 -6.54e-4,0.0123 -0.0015,0.0195 -0.0014,0.0184 1.43e-4,-0.001 3.45e-4,-0.0101 0.0091,-0.0388 0.0041,-0.0132 0.01185,-0.036 0.02583,-0.0635 0.01351,-0.0265 0.03963,-0.071 0.08563,-0.11566 0.02413,-0.0234 0.05519,-0.0484 0.094,-0.0702 0.03966,-0.0223 0.08513,-0.0401 0.135397,-0.0501 0.05076,-0.0101 0.10045,-0.0111 0.146853,-0.005 0.0462,0.006 0.08606,0.0179 0.118603,0.0315 0.0634,0.0264 0.106093,0.0612 0.128678,0.0819 0.02434,0.0223 0.0404,0.0423 0.04884,0.0536 0.01961,0.0261 0.02204,0.0337 0.02219,0.0341 1.67e-4,3.3e-4 -0.0039,-0.008 -0.0094,-0.0213 -0.0059,-0.0144 -0.01317,-0.0331 -0.02164,-0.0566 -0.01915,-0.0529 -0.04116,-0.12008 -0.0648,-0.19637 -0.01143,-0.0369 -0.02302,-0.0752 -0.03456,-0.11402 -0.01699,-0.0571 -0.03486,-0.11871 -0.05351,-0.1842 -0.178807,-0.62786 -0.458767,-1.72871 -0.591013,-2.249672 l -0.571461,-0.340069 z"
                   id="path-1-19"
                   inkscape:path-effect="#path-effect379;#path-effect381"
                   inkscape:original-d="m 15.56898,99.935264 c 0.563421,0.793506 0.612812,1.724116 0.806092,2.642196 0.04774,0.22677 0.179131,0.90348 0.179131,0.67174 0,-0.94085 -0.375153,-1.81381 -0.358263,-2.77653 0.0079,-0.45001 0.103384,-0.894496 0.134349,-1.343496 0.09478,-1.37439 -0.03913,-1.0464 0.179131,-2.32871 0.121269,-0.71245 0.235332,-1.44447 0.761309,-1.97045"
                   style="fill:#191031;fill-opacity:1;fill-rule:nonzero;stroke:none;stroke-width:0.944882;stroke-linecap:round;stroke-linejoin:round;stroke-miterlimit:0.6"
                   transform="rotate(6.2201329,-24.088574,-638.52623)" />
                <path
                   d="m 20.43585,98.63393 c -0.241003,-0.07522 -0.682596,-0.20386 -1.144648,-0.263723 -0.22191,-0.02875 -0.460533,-0.04348 -0.696445,-0.02679 -0.06712,0.0048 -0.138958,0.01239 -0.213473,0.02434 -0.225655,0.03619 -0.484319,0.112258 -0.718329,0.28029 -0.09705,0.06969 -0.187226,0.153691 -0.265934,0.253583 -0.07262,0.09217 -0.132804,0.194482 -0.179451,0.305869 -0.08577,0.204825 -0.120812,0.428125 -0.115448,0.658128 0.0049,0.211458 0.04398,0.429588 0.109434,0.647098 0.122263,0.40628 0.341225,0.82418 0.61759,1.19336 0.134439,0.17959 0.283531,0.34898 0.44251,0.49907 0.158884,0.15 0.330873,0.28378 0.511335,0.38887 0.18289,0.10651 0.383571,0.18881 0.594684,0.22264 0.108958,0.0175 0.221293,0.0221 0.334763,0.01 0.116571,-0.0126 0.230793,-0.0425 0.339965,-0.091 0.112301,-0.0499 0.213807,-0.11703 0.304032,-0.19761 0.0931,-0.0832 0.172129,-0.17877 0.239074,-0.28163 0.142595,-0.2191 0.23555,-0.47899 0.296395,-0.75041 0.07113,-0.31731 0.102268,-0.66826 0.109083,-1.02236 0.0092,-0.47779 -0.02604,-0.963228 -0.06787,-1.364499 l -0.559186,-0.453602 -0.453602,0.559186 c 0.03959,0.379785 0.07065,0.819565 0.06257,1.239315 -0.006,0.31273 -0.03337,0.59063 -0.08461,0.81922 -0.04444,0.19825 -0.101056,0.33294 -0.156223,0.41771 -0.02462,0.0378 -0.04667,0.0622 -0.06395,0.0776 -0.01625,0.0145 -0.02936,0.0221 -0.03926,0.0266 -0.0096,0.004 -0.02074,0.008 -0.03545,0.009 -0.01509,0.002 -0.03592,0.002 -0.06461,-0.003 -0.05788,-0.009 -0.139732,-0.0368 -0.243362,-0.0971 -0.100816,-0.0587 -0.211113,-0.14209 -0.324737,-0.24936 -0.11285,-0.10654 -0.223603,-0.23158 -0.326367,-0.36886 -0.214755,-0.28689 -0.374198,-0.59914 -0.457685,-0.87657 -0.04411,-0.1466 -0.06409,-0.273259 -0.06652,-0.377409 -0.0026,-0.112237 0.01517,-0.189653 0.03669,-0.241055 0.01168,-0.02789 0.02531,-0.0503 0.04003,-0.06899 0.01598,-0.02028 0.03555,-0.03908 0.06003,-0.05667 0.0625,-0.04488 0.156862,-0.08133 0.28566,-0.101991 0.04073,-0.0065 0.0824,-0.01108 0.12411,-0.01403 0.149073,-0.01055 0.316728,-0.002 0.493721,0.02089 0.37262,0.04828 0.746658,0.155553 0.972085,0.225914 l 0.637711,-0.334317 z"
                   id="path-1-4"
                   inkscape:path-effect="#path-effect414;#path-effect416"
                   inkscape:original-d="m 20.284153,99.119944 c -0.197316,-1.185744 -1.316361,-0.918523 -2.288146,0.611957 -0.178133,0.280549 -0.325279,0.734609 -0.324943,1.076509 8.2e-5,0.0709 0.05191,0.13204 0.0709,0.20025 0.257288,0.92455 1.381654,1.37262 2.267292,1.01505 0.643626,-0.25985 0.766503,-1.20728 0.701296,-1.79566 -0.04057,-0.366024 -0.192912,-0.7105 -0.283834,-1.056277"
                   style="fill:#191031;fill-opacity:1;fill-rule:nonzero;stroke:none;stroke-width:0.944882;stroke-linecap:round;stroke-linejoin:round;stroke-miterlimit:0.6"
                   sodipodi:nodetypes="csscssc"
                   transform="rotate(6.2201329,-24.088574,-638.52623)" />
                <path
                   d="m 19.843805,99.279602 c 0.389251,0.500151 1.234301,1.642808 1.906037,3.311268 0.09893,0.24573 0.204046,0.52717 0.307682,0.84162 0.366333,1.11153 0.674896,2.51944 0.718423,4.16462 0.03273,1.23691 -0.08943,2.49002 -0.369584,3.65451 -0.12667,0.52652 -0.281997,1.01865 -0.459659,1.46229 -0.172746,0.43136 -0.363183,0.80824 -0.561678,1.11956 -0.19708,0.3091 -0.393652,0.54027 -0.576388,0.69592 -0.09056,0.0771 -0.173647,0.13225 -0.247626,0.16964 -0.07404,0.0374 -0.136367,0.0558 -0.187316,0.0629 -0.05021,0.007 -0.09428,0.004 -0.135619,-0.007 -0.04238,-0.0114 -0.09188,-0.0338 -0.148365,-0.0762 -0.0584,-0.0438 -0.124409,-0.10924 -0.194557,-0.20432 -0.07181,-0.0973 -0.144814,-0.22153 -0.21622,-0.37634 -0.151029,-0.32743 -0.28248,-0.76447 -0.38519,-1.31247 -0.112302,-0.59917 -0.184689,-1.30053 -0.219274,-2.08429 -0.09651,-2.18703 0.113619,-4.70097 0.340486,-6.66669 l -0.440619,-0.5556 -0.555593,0.44062 c -0.228623,1.98094 -0.446202,4.55796 -0.346125,6.82588 0.03601,0.81604 0.112093,1.56659 0.235462,2.22482 0.11212,0.5982 0.263485,1.12122 0.46023,1.54776 0.09405,0.2039 0.200107,0.38934 0.31987,0.55167 0.117054,0.15866 0.249538,0.29839 0.39945,0.41093 0.14813,0.11121 0.312104,0.1949 0.490311,0.24276 0.176319,0.0474 0.356266,0.0568 0.534473,0.032 0.175374,-0.0245 0.343166,-0.0814 0.500941,-0.16112 0.156612,-0.0792 0.305311,-0.18178 0.445546,-0.30123 0.279114,-0.23774 0.537731,-0.55326 0.771698,-0.92021 0.237942,-0.37319 0.455537,-0.80764 0.647054,-1.28588 0.197434,-0.49301 0.366886,-1.03179 0.503714,-1.60053 0.302217,-1.25619 0.431926,-2.5975 0.397053,-3.9156 -0.04645,-1.7556 -0.37578,-3.26051 -0.768466,-4.452 -0.111057,-0.33697 -0.223737,-0.63868 -0.329853,-0.90226 -0.720851,-1.79044 -1.627885,-3.016815 -2.044904,-3.552644 l -0.703655,-0.08774 z"
                   id="path-1-0"
                   inkscape:path-effect="#path-effect421;#path-effect423"
                   inkscape:original-d="m 20.239502,98.971644 c 0.490028,2.098186 1.211094,4.135086 1.848193,6.196136 0.145316,0.47009 0.247497,0.95301 0.398098,1.42144 0.294758,0.91681 0.645511,1.81506 0.937486,2.73277 0.267181,0.83978 1.008897,3.88115 0.358246,4.83074 -0.895019,1.30624 -2.070452,1.2534 -3.475044,1.00498 -0.392342,-0.0694 -0.85186,-0.16679 -1.155204,-0.46233 -0.484282,-0.47182 -0.902005,-1.92226 -1.027614,-2.52058 -0.220364,-1.04971 -0.167805,-2.20613 0.05179,-3.24828 0.121645,-0.57729 0.50496,-1.70972 0.571193,-2.29042 0.101477,-0.88986 0.06041,-1.77379 0.170205,-2.65923"
                   style="fill:#191031;fill-opacity:1;fill-rule:nonzero;stroke:none;stroke-width:0.944882;stroke-linecap:round;stroke-linejoin:round;stroke-miterlimit:0.6"
                   transform="rotate(6.2201329,-24.088574,-638.52623)" />
                <path
                   d="m 21.789349,101.3627 c 0.362979,-0.26298 0.971351,-0.73129 1.415424,-1.2711 0.0773,-0.09398 0.148717,-0.188943 0.212924,-0.284489 0.05306,-0.07896 0.105847,-0.16523 0.153718,-0.256853 0.07912,-0.151423 0.145322,-0.318465 0.176984,-0.492031 0.02678,-0.146776 0.02906,-0.300155 -0.0084,-0.448832 -0.03421,-0.135606 -0.100318,-0.261268 -0.199867,-0.364057 -0.09304,-0.09606 -0.208417,-0.164873 -0.335468,-0.203246 -0.121668,-0.03675 -0.2515,-0.04485 -0.379683,-0.02507 -0.125928,0.01943 -0.250225,0.06574 -0.364281,0.138142 -0.114143,0.07246 -0.216251,0.169901 -0.299536,0.289844 -0.08458,0.121812 -0.147508,0.263509 -0.186189,0.421194 -0.03994,0.16283 -0.05335,0.339663 -0.041,0.527256 0.02754,0.418262 0.181622,0.874446 0.429525,1.345806 0.355774,0.67648 0.867113,1.31285 1.285897,1.78394 l 0.472313,0.0278 0.02776,-0.47232 c -0.405438,-0.45607 -0.875247,-1.04518 -1.193773,-1.65083 -0.221968,-0.42205 -0.33476,-0.785128 -0.354064,-1.078314 -0.0085,-0.128841 0.0017,-0.236234 0.02318,-0.323889 0.02072,-0.08445 0.05169,-0.149642 0.08595,-0.198975 0.03374,-0.04858 0.0715,-0.08306 0.108537,-0.106576 0.03736,-0.02371 0.0745,-0.03664 0.107707,-0.04176 0.03402,-0.0052 0.06264,-0.0022 0.0842,0.0043 0.0219,0.0066 0.03732,0.01689 0.04828,0.02821 0.0114,0.01177 0.02374,0.03057 0.03173,0.06224 0.0092,0.03658 0.01254,0.09073 -0.001,0.165076 -0.01622,0.08889 -0.05371,0.191113 -0.111779,0.302259 -0.03444,0.06591 -0.07398,0.130911 -0.116039,0.193504 -0.05071,0.07546 -0.108916,0.153129 -0.174296,0.232606 -0.38664,0.470003 -0.935991,0.896953 -1.291258,1.154343 l -0.07464,0.4672 z"
                   id="path-1-59"
                   inkscape:path-effect="#path-effect643;#path-effect645"
                   inkscape:original-d="m 21.593067,101.09178 c 0.244643,-0.0816 0.291792,-0.0912 0.604568,-0.2687 0.683436,-0.38789 1.141964,-1.146866 1.141964,-1.925655 0,-0.12539 -0.07292,-0.90867 -0.380655,-0.806092 -0.181553,0.06052 -0.294025,0.456639 -0.335871,0.582177 -0.386667,1.159999 -0.07356,2.17352 0.716526,3.09001 0.133139,0.15445 0.365879,0.44045 0.559786,0.5374"
                   style="fill:#191031;fill-opacity:1;fill-rule:nonzero;stroke:none;stroke-width:0.944882;stroke-linecap:round;stroke-linejoin:round;stroke-miterlimit:0.6"
                   transform="rotate(6.2201329,-24.088574,-638.52623)" />
                <path
                   d="m -50.268811,101.02415 c -0.02424,-1.895904 -0.05865,-4.873748 -0.06931,-7.624221 -0.0069,-1.790732 -0.0037,-3.451191 0.01659,-4.734779 0.0029,-0.184309 0.0062,-0.360203 0.0098,-0.527125 0.0067,-0.308798 0.01506,-0.606498 0.02552,-0.87328 0.0069,-0.175239 0.01459,-0.335572 0.02325,-0.476252 0.008,-0.130222 0.01665,-0.240715 0.02581,-0.329255 0.0043,-0.04193 0.0086,-0.07741 0.01281,-0.106704 0.0041,-0.02891 0.0077,-0.04874 0.01028,-0.06106 0.003,-0.01431 0.0029,-0.0093 -0.003,0.0064 -0.003,0.008 -0.01047,0.02693 -0.02433,0.051 -0.0071,0.01238 -0.01749,0.02881 -0.03174,0.04717 -0.01402,0.01805 -0.03437,0.04127 -0.06225,0.06499 -0.02787,0.02371 -0.0663,0.05049 -0.116085,0.07168 -0.05074,0.0216 -0.109743,0.03581 -0.174199,0.03656 -0.064,7.44e-4 -0.12243,-0.0119 -0.172452,-0.0315 -0.04858,-0.01903 -0.08651,-0.04348 -0.114224,-0.06524 -0.02748,-0.02157 -0.04794,-0.04285 -0.06227,-0.05959 -0.01441,-0.01683 -0.02511,-0.03201 -0.03263,-0.04361 -0.01441,-0.02223 -0.02263,-0.03989 -0.02609,-0.04772 -0.0066,-0.01487 -0.0071,-0.01991 -0.0036,-0.0071 0.003,0.01065 0.0073,0.02829 0.01274,0.05466 0.01066,0.05156 0.02307,0.124204 0.03692,0.221321 0.01332,0.09338 0.02745,0.205666 0.04235,0.337962 0.02867,0.254542 0.05951,0.577249 0.0924,0.970715 0.06197,0.741312 0.129778,1.716954 0.201768,2.91084 0.134135,2.224488 0.277821,5.12731 0.409738,8.293097 0.127252,3.053829 0.238046,6.222969 0.311348,8.991439 0.03713,1.40214 0.0641,2.68135 0.07919,3.78663 0.01563,1.14517 0.01827,2.08615 0.0073,2.79157 -0.0057,0.36642 -0.01503,0.664 -0.02768,0.89283 -0.0065,0.11729 -0.01369,0.21384 -0.0214,0.29085 -0.0081,0.0807 -0.01584,0.1308 -0.02144,0.15733 -0.0029,0.0139 -0.0032,0.0113 0.0013,-0.001 0.0024,-0.007 0.0082,-0.0215 0.01863,-0.0409 0.0097,-0.0179 0.03009,-0.0524 0.06586,-0.0895 0.01871,-0.0194 0.04416,-0.0422 0.07725,-0.0637 0.03361,-0.0219 0.07563,-0.0427 0.125788,-0.0566 0.05103,-0.0141 0.10502,-0.0195 0.159448,-0.0149 0.05409,0.005 0.101894,0.0182 0.141963,0.0355 0.07719,0.0333 0.12584,0.0798 0.149863,0.10609 0.02557,0.028 0.04081,0.0524 0.04786,0.0645 0.01657,0.0284 0.01577,0.0323 0.01363,0.0263 -0.0026,-0.007 -0.0074,-0.0227 -0.01409,-0.0483 -0.01373,-0.0528 -0.03021,-0.12985 -0.04897,-0.23404 -0.03959,-0.21984 -0.08392,-0.53002 -0.132043,-0.9211 -0.05276,-0.42879 -0.108735,-0.94382 -0.16663,-1.52202 -0.149322,-1.49131 -0.305518,-3.34413 -0.438211,-5.00617 l -0.506151,-0.43131 -0.431307,0.50615 c 0.132815,1.66356 0.289612,3.524 0.439908,5.02502 0.05829,0.58215 0.115051,1.1048 0.16899,1.54318 0.04886,0.39707 0.09567,0.72735 0.139888,0.97291 0.02081,0.11556 0.04214,0.21859 0.06434,0.304 0.01086,0.0418 0.0231,0.0839 0.03712,0.12376 0.01276,0.0363 0.0322,0.0859 0.06129,0.13572 0.01467,0.0251 0.03742,0.0601 0.07038,0.0962 0.03136,0.0343 0.08723,0.0864 0.171515,0.12272 0.04361,0.0188 0.09492,0.0334 0.152471,0.0382 0.05789,0.005 0.115314,-8.4e-4 0.169742,-0.0159 0.05355,-0.0148 0.09893,-0.0373 0.135867,-0.0613 0.03641,-0.0237 0.06515,-0.0492 0.08712,-0.072 0.04226,-0.0438 0.06905,-0.0875 0.08497,-0.11701 0.01665,-0.0309 0.0285,-0.0597 0.03691,-0.0827 0.01639,-0.0449 0.02748,-0.0894 0.03542,-0.12704 0.01581,-0.0748 0.02757,-0.16313 0.03707,-0.25803 0.0095,-0.0952 0.01768,-0.20649 0.02465,-0.33263 0.0136,-0.24608 0.02318,-0.55723 0.029,-0.93005 0.01121,-0.71862 0.0085,-1.66984 -0.0072,-2.81909 -0.01516,-1.11034 -0.04223,-2.39372 -0.07943,-3.79868 -0.07345,-2.774 -0.184419,-5.94796 -0.311834,-9.005702 -0.132073,-3.169519 -0.276034,-6.078446 -0.410627,-8.310545 -0.07221,-1.197595 -0.14052,-2.181165 -0.203332,-2.932579 -0.03333,-0.398659 -0.06502,-0.731001 -0.09504,-0.997624 -0.01562,-0.138669 -0.03089,-0.260528 -0.04587,-0.365519 -0.01534,-0.107531 -0.03089,-0.201102 -0.04697,-0.278901 -0.0083,-0.03999 -0.01732,-0.07897 -0.02743,-0.115452 -0.0097,-0.03517 -0.02328,-0.07835 -0.04247,-0.121806 -0.0099,-0.02233 -0.0244,-0.05202 -0.04505,-0.08387 -0.01066,-0.01644 -0.02448,-0.03584 -0.04198,-0.05629 -0.01744,-0.02038 -0.04099,-0.04468 -0.07153,-0.06865 -0.0308,-0.02418 -0.07179,-0.05043 -0.123401,-0.07065 -0.05308,-0.0208 -0.114543,-0.03402 -0.181543,-0.03324 -0.06748,7.85e-4 -0.129488,0.01565 -0.183198,0.03851 -0.05279,0.02247 -0.09419,0.05115 -0.125001,0.07736 -0.03085,0.02625 -0.05414,0.05261 -0.07107,0.07441 -0.01719,0.02214 -0.03046,0.04296 -0.04047,0.06035 -0.01969,0.03418 -0.03289,0.06572 -0.04151,0.08877 -0.01735,0.04636 -0.02857,0.09213 -0.0362,0.128136 -0.0084,0.0394 -0.01534,0.08135 -0.02136,0.123633 -0.0063,0.04405 -0.01196,0.09185 -0.01719,0.142408 -0.01098,0.106138 -0.02056,0.230665 -0.02903,0.368299 -0.0092,0.149616 -0.01725,0.317248 -0.0243,0.497152 -0.01075,0.274014 -0.01924,0.577532 -0.02602,0.889728 -0.0037,0.168974 -0.007,0.346719 -0.0099,0.532628 -0.02049,1.292877 -0.02365,2.960563 -0.0167,4.753326 0.01067,2.754799 0.04513,5.736038 0.06938,7.632598 l 0.476193,0.46417 z"
                   id="path-1-46"
                   inkscape:path-effect="#path-effect650;#path-effect652"
                   inkscape:original-d="m -50.738993,101.03016 c -0.283624,-0.11942 -0.641793,-0.13246 -0.850874,-0.35827 -0.572507,-0.6183 -0.43558,-3.30934 -0.31348,-4.075237 0.311166,-1.951861 1.000368,-3.83562 1.522617,-5.732208 0.270666,-0.982944 0.27134,-1.532593 0.358263,-2.597406 0.03117,-0.381794 0.123401,-0.950398 0.04478,-1.343486 -0.01309,-0.06546 -0.14432,0.0326 -0.179131,0.08956 -0.351007,0.574374 -0.553275,1.07176 -0.716526,1.746532 -0.545561,2.254987 -0.616656,4.727227 -0.492612,7.030911 0.17715,3.289935 0.453401,3.349675 1.164355,6.851784 0.553897,2.72846 1.066174,5.46522 1.612183,8.19526 0.190628,0.95315 0.412087,1.9022 0.537395,2.86611 0.0693,0.53311 0.120811,1.07998 0.04478,1.61218 -0.04625,0.32373 -0.803996,3.31694 -1.836098,3.1348 -0.693411,-0.12236 -1.435791,-1.33487 -1.701749,-1.83609 -1.679098,-3.16446 -0.202427,-5.49092 1.164354,-8.32962"
                   style="fill:#191031;fill-opacity:1;fill-rule:nonzero;stroke:none;stroke-width:0.944882;stroke-linecap:round;stroke-linejoin:round;stroke-miterlimit:0.6" />
                <path
                   d="m -49.982569,106.93426 c 0.485636,1.72965 1.144447,3.87323 1.942158,5.86846 0.581264,1.45386 1.215301,2.77734 1.899927,3.84361 0.304664,0.47449 0.617613,0.89538 0.939145,1.25456 0.306741,0.34265 0.622308,0.63028 0.94732,0.85502 0.314978,0.21779 0.639687,0.37706 0.973251,0.46902 0.327749,0.0904 0.656305,0.11351 0.981144,0.0694 0.320215,-0.0434 0.625631,-0.15064 0.913998,-0.30896 0.286635,-0.15737 0.55522,-0.36451 0.806182,-0.60855 0.507061,-0.49308 0.953545,-1.14793 1.341879,-1.88485 0.319115,-0.60557 0.60153,-1.27144 0.848117,-1.9595 0.06811,-0.19004 0.135274,-0.38678 0.201279,-0.59019 0.286294,-0.8823 0.54729,-1.88009 0.762848,-2.96836 0.388595,-1.96185 0.61391,-4.14961 0.563896,-6.17056 -0.02392,-0.96647 -0.110867,-1.88011 -0.269782,-2.69233 -0.160265,-0.81912 -0.394698,-1.54058 -0.716733,-2.114014 -0.16567,-0.295005 -0.356642,-0.554671 -0.576116,-0.769046 -0.226627,-0.221362 -0.482045,-0.39275 -0.765957,-0.503551 -0.295567,-0.11535 -0.607359,-0.159295 -0.927854,-0.138336 -0.33498,0.02191 -0.671759,0.11406 -1.005398,0.259395 -0.356706,0.155383 -0.713911,0.373303 -1.068095,0.6377 -0.389155,0.290503 -0.77712,0.638972 -1.158649,1.025932 -0.990292,1.00437 -1.926354,2.2579 -2.671598,3.34517 l 0.122011,0.65371 0.653703,-0.12201 c 0.733547,-1.07022 1.632975,-2.27076 2.56555,-3.21659 0.357306,-0.36239 0.709511,-0.67726 1.051557,-0.93259 0.311946,-0.23287 0.606531,-0.40953 0.881092,-0.529131 0.256295,-0.111643 0.486357,-0.169754 0.691197,-0.18315 0.192728,-0.0126 0.365913,0.01407 0.524577,0.07599 0.153439,0.05988 0.30408,0.15698 0.450734,0.300227 0.143536,0.140198 0.282587,0.324088 0.41326,0.556778 0.25675,0.45718 0.465063,1.07401 0.613778,1.8341 0.146416,0.74834 0.229618,1.60752 0.252571,2.53501 0.04804,1.94136 -0.168901,4.05944 -0.54626,5.96457 -0.208863,1.05446 -0.460784,2.01619 -0.734857,2.86083 -0.06314,0.19459 -0.127244,0.38232 -0.192058,0.56317 -0.235236,0.65639 -0.500669,1.28019 -0.7948,1.83834 -0.360809,0.68469 -0.752987,1.2479 -1.165525,1.64907 -0.202147,0.19657 -0.403798,0.34896 -0.60314,0.4584 -0.199118,0.10932 -0.394796,0.17524 -0.587831,0.20143 -0.194595,0.0264 -0.395157,0.0136 -0.604774,-0.0442 -0.215584,-0.0594 -0.445657,-0.16814 -0.688328,-0.33594 -0.251747,-0.17407 -0.512865,-0.40867 -0.781493,-0.70875 -0.281301,-0.31423 -0.564599,-0.69328 -0.84848,-1.13541 -0.640365,-0.99734 -1.24885,-2.26094 -1.818054,-3.68463 -0.779921,-1.95073 -1.428346,-4.05821 -1.909964,-5.77355 l -0.579823,-0.3256 z"
                   id="path-1-42"
                   inkscape:path-effect="#path-effect657;#path-effect659"
                   inkscape:original-d="m -49.529855,106.80715 c 0.365069,3.13305 1.871384,9.25718 4.657418,10.79267 3.83501,2.11361 6.538278,-2.5126 7.657871,-4.79177 0.681906,-1.38816 0.831387,-3.78172 0.850875,-5.41873 0.01617,-1.35793 0.09601,-3.16088 -0.358263,-4.47828 -0.393734,-1.14183 -1.93074,-3.424579 -2.955669,-4.164809 -0.251683,-0.18177 -1.33589,-0.697689 -1.70175,-0.806092 -0.864838,-0.256248 -1.549803,0.939672 -1.925663,1.477832 -0.538617,0.771199 -1.839843,2.673949 -2.239144,3.672199 -0.124634,0.31158 -0.08957,0.69578 -0.08957,1.03"
                   style="fill:#191031;fill-opacity:1;fill-rule:nonzero;stroke:none;stroke-width:0.944882;stroke-linecap:round;stroke-linejoin:round;stroke-miterlimit:0.6" />
                <ellipse
                   style="fill:#191031;fill-opacity:1;stroke-width:0.25;stroke-linecap:round;stroke-linejoin:round;stroke-miterlimit:0.6"
                   id="path785"
                   cx="-30.553116"
                   cy="102.9894"
                   rx="0.50380731"
                   ry="0.54859018" />
                <path
                   d="m -36.520417,105.77356 c -0.0025,0.32387 0.0086,0.8825 0.123847,1.44125 0.04825,0.23386 0.113248,0.46118 0.199243,0.67223 0.04671,0.11463 0.105383,0.23865 0.17914,0.36138 0.07724,0.12853 0.172131,0.2575 0.288535,0.37292 0.103006,0.10214 0.223172,0.19391 0.361551,0.26385 0.128751,0.0651 0.269433,0.10922 0.419315,0.12616 0.142984,0.0162 0.287539,0.007 0.429959,-0.0269 0.27703,-0.0655 0.529067,-0.21853 0.745655,-0.42421 0.222102,-0.21092 0.408931,-0.47857 0.559106,-0.77698 0.425925,-0.84636 0.5011,-1.80556 0.500176,-2.40983 l -0.470939,-0.4695 -0.469501,0.47094 c 8.38e-4,0.54796 -0.07152,1.33331 -0.399797,1.98563 -0.112639,0.22382 -0.239389,0.39695 -0.366648,0.5178 -0.124143,0.11789 -0.233316,0.17175 -0.314613,0.19099 -0.04102,0.01 -0.07659,0.0111 -0.107804,0.008 -0.03265,-0.004 -0.06592,-0.0134 -0.100703,-0.031 -0.0382,-0.0193 -0.07987,-0.049 -0.123594,-0.0923 -0.04996,-0.0495 -0.09866,-0.11306 -0.144614,-0.18953 -0.04367,-0.0727 -0.08162,-0.15161 -0.114305,-0.23183 -0.06001,-0.14727 -0.109963,-0.31761 -0.149121,-0.5074 -0.09519,-0.46137 -0.106778,-0.94192 -0.104476,-1.24406 l -0.466623,-0.47379 z"
                   id="path-1-50"
                   inkscape:path-effect="#path-effect824;#path-effect826"
                   inkscape:original-d="m -36.050211,105.77714 c -0.06993,0.4456 0.175587,0.79486 0.313477,1.23153 0.161255,0.51064 0.101621,1.40377 0.582178,1.72414 0.727779,0.48519 2.468367,-2.36287 1.970446,-3.35871"
                   style="fill:#191031;fill-opacity:1;fill-rule:nonzero;stroke:none;stroke-width:0.944882;stroke-linecap:round;stroke-linejoin:round;stroke-miterlimit:0.6"
                   sodipodi:nodetypes="cssc" />
                <path
                   d="m -32.161271,105.12108 c -0.07353,0.28193 -0.178561,0.75903 -0.161245,1.25022 0.01037,0.29405 0.06386,0.58169 0.179982,0.83959 0.01718,0.0382 0.03641,0.0772 0.05797,0.11652 0.06618,0.12083 0.153881,0.2442 0.269853,0.35579 0.10002,0.0962 0.217648,0.18034 0.353188,0.24516 0.244097,0.11673 0.521927,0.15924 0.810713,0.12523 0.269038,-0.0317 0.536808,-0.12842 0.785318,-0.2774 0.253816,-0.15215 0.482386,-0.3555 0.674719,-0.5939 0.551488,-0.68358 0.674658,-1.46906 0.686357,-1.97649 l -0.459256,-0.48094 -0.480934,0.45926 c -0.0091,0.39319 -0.105257,0.94551 -0.478108,1.40767 -0.128661,0.15948 -0.274948,0.28705 -0.426322,0.3778 -0.148798,0.0892 -0.290553,0.13574 -0.411754,0.15001 -0.127273,0.015 -0.222716,-0.005 -0.295004,-0.0397 -0.04013,-0.0192 -0.07544,-0.0442 -0.106858,-0.0744 -0.03693,-0.0355 -0.06927,-0.0791 -0.09709,-0.12987 -0.009,-0.0165 -0.01743,-0.0335 -0.02527,-0.0509 -0.05383,-0.11956 -0.09039,-0.28071 -0.09765,-0.48662 -0.01246,-0.35335 0.06496,-0.72508 0.131384,-0.97975 l -0.336324,-0.57367 z"
                   id="path-1-16"
                   inkscape:path-effect="#path-effect838;#path-effect840"
                   inkscape:original-d="m -31.706273,105.23975 c 0.101931,0.50935 -0.136375,1.11214 0,1.61218 0.303132,1.11148 1.269662,1.03251 1.970447,0.22391 0.33686,-0.38868 0.586969,-0.96919 0.671743,-1.47783 0.02939,-0.17632 -0.01157,-0.25135 0.08957,-0.40305"
                   style="fill:#191031;fill-opacity:1;fill-rule:nonzero;stroke:none;stroke-width:0.944882;stroke-linecap:round;stroke-linejoin:round;stroke-miterlimit:0.6" />
                <path
                   d="m -29.341405,105.48907 c 0.494726,0.61714 1.370936,1.84345 2.041722,3.8454 0.07825,0.23353 0.152994,0.47535 0.223675,0.72557 0.257503,0.91161 0.508952,2.10534 0.629285,3.56969 0.107061,1.30284 0.09844,2.69097 -0.04625,4.0552 -0.06396,0.60303 -0.152569,1.18094 -0.262235,1.71615 -0.105796,0.51631 -0.229328,0.98364 -0.364296,1.38525 -0.133244,0.39648 -0.273027,0.71504 -0.409215,0.94795 -0.06758,0.11558 -0.13043,0.20341 -0.186119,0.26708 -0.05682,0.065 -0.09759,0.0949 -0.118529,0.10677 -0.0095,0.005 -0.01201,0.005 -0.0078,0.004 0.0049,-0.001 0.01468,-0.003 0.02775,-0.002 0.01328,7.3e-4 0.02423,0.004 0.0313,0.006 0.0064,0.003 0.0063,0.004 -7.41e-4,-0.002 -0.01626,-0.0125 -0.05312,-0.048 -0.102541,-0.12896 -0.0497,-0.0814 -0.103776,-0.19497 -0.158639,-0.34692 -0.115704,-0.32046 -0.219183,-0.76705 -0.302771,-1.34166 -0.09112,-0.62637 -0.154019,-1.3722 -0.189948,-2.21541 -0.100054,-2.34814 0.02217,-5.11347 0.165739,-7.30315 l -0.438448,-0.49997 -0.499978,0.43845 c -0.144157,2.19863 -0.269168,5.00461 -0.166901,7.4047 0.03681,0.86382 0.10179,1.64327 0.198891,2.31076 0.08828,0.60687 0.20322,1.12226 0.348866,1.52565 0.06965,0.1929 0.148974,0.36769 0.24058,0.5177 0.08883,0.14544 0.197288,0.28092 0.332199,0.38457 0.06757,0.0519 0.143382,0.097 0.226804,0.13005 0.0836,0.0332 0.172159,0.0534 0.263957,0.0584 0.09113,0.005 0.179838,-0.005 0.264257,-0.0275 0.08349,-0.0221 0.160745,-0.0554 0.231343,-0.0955 0.138606,-0.0786 0.258699,-0.18706 0.36241,-0.30562 0.104274,-0.11921 0.200727,-0.25869 0.290102,-0.41154 0.178895,-0.30595 0.342774,-0.68848 0.488825,-1.12308 0.14933,-0.44435 0.282162,-0.94953 0.394147,-1.49606 0.116259,-0.56737 0.209272,-1.17534 0.276131,-1.80573 0.15112,-1.42485 0.160041,-2.87202 0.04833,-4.23141 -0.125718,-1.52988 -0.389,-2.78347 -0.661539,-3.74831 -0.07474,-0.26461 -0.153919,-0.52081 -0.236986,-0.76872 -0.714689,-2.13297 -1.655171,-3.45561 -2.199664,-4.13483 l -0.660998,-0.0728 z"
                   id="path-1-7"
                   inkscape:path-effect="#path-effect845;#path-effect847"
                   inkscape:original-d="m -28.974518,105.19496 c 0.356511,-0.86273 1.651912,-1.63553 2.283927,-0.58217 0.833398,1.38899 0.603489,3.27397 -0.134349,4.65742 -0.186496,0.34968 -0.371932,0.6889 -0.716526,0.89565 -0.02926,0.0176 -0.31348,0.07 -0.31348,0.0448 0,-0.14928 0.226335,-0.19886 0.358263,-0.2687 1.188238,-0.62907 1.185556,-0.50198 2.194361,0.53739 1.650925,1.70096 2.073531,3.28519 2.149578,5.64264 0.02312,0.71678 0.12468,1.46519 -0.08957,2.14958 -0.984109,3.14368 -3.63476,5.86441 -6.806997,6.76222 -1.099025,0.31104 -2.846964,0.11301 -2.373492,-1.52262 0.481091,-1.66195 2.302059,-2.46677 3.493064,-3.49307 0.839947,-0.72378 1.66174,-1.47335 2.418275,-2.28392 0.228788,-0.24513 2.284257,-2.98034 2.507841,-3.35872 0.372804,-0.6309 -5.406767,-3.05719 -4.83655,-3.62741"
                   style="fill:#191031;fill-opacity:1;fill-rule:nonzero;stroke:none;stroke-width:0.944882;stroke-linecap:round;stroke-linejoin:round;stroke-miterlimit:0.6"
                   sodipodi:nodetypes="csscscsscsssssc" />
                <path
                   d="m -33.595385,105.25957 c -0.01409,0.0561 -0.04279,0.18074 -0.05698,0.36353 -1.63e-4,0.002 -3.25e-4,0.004 -4.86e-4,0.006 -0.0069,0.0917 -0.01267,0.23071 -0.0024,0.40355 0.01409,0.23732 0.05924,0.54524 0.173127,0.85104 0.05212,0.13994 0.118437,0.27868 0.202139,0.40807 0.08711,0.13467 0.191188,0.25631 0.313803,0.35794 0.139917,0.11596 0.291519,0.19554 0.44725,0.24397 0.219157,0.0681 0.415842,0.065 0.543088,0.053 l 0.424263,-0.51207 -0.512069,-0.42427 c -0.05484,0.005 -0.116378,0.004 -0.176039,-0.0147 -0.04015,-0.0125 -0.0824,-0.0336 -0.126361,-0.07 -0.03983,-0.033 -0.08227,-0.0797 -0.124301,-0.14466 -0.04072,-0.063 -0.07808,-0.13855 -0.110468,-0.2255 -0.07245,-0.19453 -0.105344,-0.40511 -0.115647,-0.57858 -0.0073,-0.12229 -0.0031,-0.21713 0.0014,-0.27723 1.05e-4,-0.001 2.1e-4,-0.003 3.16e-4,-0.004 0.009,-0.11578 0.02623,-0.18636 0.03148,-0.20726 l -0.341533,-0.57059 z"
                   id="path-1-00"
                   inkscape:path-effect="#path-effect852;#path-effect854"
                   inkscape:original-d="m -33.139325,105.3741 c -0.05107,1.04939 0.04693,2.10479 1.119572,2.10479"
                   style="fill:#191031;fill-opacity:1;fill-rule:nonzero;stroke:none;stroke-width:0.944882;stroke-linecap:round;stroke-linejoin:round;stroke-miterlimit:0.6"
                   sodipodi:nodetypes="cc" />
              </g>
            </g>
          </g>
        </g>
      </g>
    </g>
  </g>
</svg>
