<?xml version="1.0" encoding="UTF-8" standalone="no"?>
<!-- Generator: Adobe Illustrator 27.2.0, SVG Export Plug-In . SVG Version: 6.00 Build 0)  -->

<svg
   version="1.1"
   id="Camada_1"
   x="0px"
   y="0px"
   viewBox="0 0 247 61"
   xml:space="preserve"
   sodipodi:docname="faculdade.svg"
   width="247"
   height="61"
   xmlns:inkscape="http://www.inkscape.org/namespaces/inkscape"
   xmlns:sodipodi="http://sodipodi.sourceforge.net/DTD/sodipodi-0.dtd"
   xmlns="http://www.w3.org/2000/svg"
   xmlns:svg="http://www.w3.org/2000/svg"><defs
   id="defs1420" /><sodipodi:namedview
   id="namedview1418"
   pagecolor="#ffffff"
   bordercolor="#000000"
   borderopacity="0.25"
   inkscape:showpageshadow="2"
   inkscape:pageopacity="0.0"
   inkscape:pagecheckerboard="0"
   inkscape:deskcolor="#d1d1d1"
   showgrid="false" />
<style
   type="text/css"
   id="style1361">
	.st0{fill-rule:evenodd;clip-rule:evenodd;fill:#FBAE17;}
	.st1{fill-rule:evenodd;clip-rule:evenodd;fill:#FFFFFF;}
</style>

<g
   id="g2761"
   transform="matrix(0.41630187,0,0,0.41630187,-104685.26,-51089.529)"
   inkscape:export-filename="..\desktop\g2761.svg"
   inkscape:export-xdpi="96"
   inkscape:export-ydpi="96"><g
     id="g2892"
     transform="matrix(1.0003443,0,0,1.0473416,56.9023,241.37292)"
     inkscape:export-filename="g2892.svg"
     inkscape:export-xdpi="96"
     inkscape:export-ydpi="96"><path
       class="st0"
       d="m 70.1,23.1 c 0.2,-0.2 1.4,-1.8 2.3,-1.8 0.9,0 1.2,1.1 1.3,1.7 0.2,1.4 0.5,3.4 1,6.6 0.8,4.7 1.7,10.2 1.7,10.2 -5,1 -17,3.8 -21,4.9 4.3,-6.8 12.1,-18.3 14.7,-21.6 z m 34.1,21.3 c 7.5,-0.4 15.4,-0.4 16.1,-0.4 1.9,0 3.5,0.2 3.8,1 0.4,1.1 -0.5,2.3 -1.8,3.3 -0.3,0.2 -4.8,3.2 -9.7,6.5 -7.4,5 -16.7,11.1 -16.7,11.1 0.1,0.2 -3.5,-16.2 -4.2,-20.5 0,-0.1 6.2,-0.7 12.5,-1 z M 55.5,92.8 c 0,0 -17.5,-14.6 -18.5,-15.4 0,0 11.1,-20.8 14.5,-26.1 2.1,-0.6 18.4,-3.6 26.1,-4.5 0,0 2.3,12.6 5.7,27.2 0,0 -22.5,15 -27.8,18.8 z m 36.3,13.5 v 0 C 89.1,97 86.4,86.6 86.4,86.6 l -20.9,14.8 c 0,0 24.2,21.3 28.9,25.4 0.1,0.1 1.1,0.9 1.5,1.1 0.8,0.4 1.5,0.2 1.8,-0.4 0.3,-0.6 0.3,-1.5 0,-2.5 -1.3,-3.8 -3.8,-11.4 -5.9,-18.7 z m -66.2,8 v 0 C 31.5,110.3 50,96.9 50,96.9 46.8,94.1 34,83.2 34,83.2 c 0,0 -10.4,21.9 -12.9,27.5 -0.1,0.3 -1.2,2.6 -0.9,4 0.2,0.7 0.7,2.3 3.5,1 0.3,-0.3 1.6,-1.1 1.9,-1.4 0,0 0,0 0,0 z M 19.8,63.8 v 0 c 2.6,2.1 13.2,10.4 13.2,10.4 1.5,-2.6 1.5,-2.8 5.1,-9.2 1.6,-2.7 3.8,-6.4 7.2,-12.2 -13,3.1 -22.5,6.5 -24.6,7.3 -0.2,0.1 -0.9,0.4 -1.1,0.5 -0.5,0.4 -0.8,0.8 -0.8,1.2 -0.2,1 0.7,1.7 1,2 z m 93.6,61.5 c -2.1,-5.8 -4.8,-12.8 -7,-20.2 C 102.2,91.4 98.8,78 98.8,78 c 2.7,-1.8 26.6,-18.1 43.9,-27.9 0.3,-0.2 5.4,-3 5.9,-6.6 0.1,-1 0,-1.9 -0.3,-2.9 -0.9,-2.6 -3.1,-4.9 -9.2,-5.3 -4.8,-0.4 -13.3,-0.9 -22.6,-0.4 -9.1,0.3 -18.8,1.3 -26.1,2.5 0,0 -2.9,-17.8 -3.9,-25.2 C 86.4,11.7 85.9,9 85.2,7.8 84.4,6.6 83.2,5.5 81.1,5.1 80.6,5 80.2,5 79.8,5 h -0.1 c -1.5,0 -2.6,0.5 -3.4,1.1 -1.1,0.8 -2.7,3 -3.1,3.6 -4.6,6.6 -17.7,25.9 -24.2,36.9 0,0 -20.3,6.2 -32.7,11.4 -3.6,1.5 -4,3.3 -4.1,4.3 -0.1,0.7 0,2.6 2.9,5 3.6,3 15,12.4 15,12.4 -4,6.3 -19.4,37.8 -20.9,46.5 -0.4,2.5 -0.4,5.1 1.4,7.5 1.1,1.5 3.2,2.5 5.4,2.6 2.6,0 6.2,-2.7 7.7,-3.8 12.2,-8.8 36.2,-27.1 36.2,-27.1 9,8.1 28.1,25.6 38.1,34.9 1.2,1.1 4.9,4.6 8.5,4.6 6.9,0.2 9.1,-5.7 9.5,-7.8 0.5,-4.6 -1.9,-9.9 -2.6,-11.8 z"
       id="path1363" /><g
       id="g1415"
       style="fill:#0a2e61;fill-opacity:1">
	<path
   class="st1"
   d="m 176.6,61.2 c -1.5,1.5 -3.7,2.4 -7,2.4 -3.1,0 -5.2,-0.8 -6.6,-2.1 -1.8,-1.8 -2.3,-4.4 -2.3,-6.8 v -15 h 3.2 v 15 c 0,1.6 0.4,3.4 1.6,4.7 0.9,0.9 2.2,1.5 4.2,1.5 2.2,0 3.6,-0.6 4.6,-1.5 1,-1.1 1.4,-2.7 1.4,-4.4 V 39.7 h 3.2 v 15.4 c -0.1,2.3 -0.8,4.5 -2.3,6.1 z"
   id="path1365"
   style="fill:#0a2e61;fill-opacity:1" />
	<path
   class="st1"
   d="M 193.6,63.3 V 53 c 0,-2 -0.3,-4.2 -2.8,-4.2 -1.9,0 -3.6,1.2 -4.9,2.4 v 12.1 h -3.1 v -17 h 2.6 l 0.4,1.9 c 1.9,-1.4 3.6,-2.4 6,-2.4 2.4,0 5,1.7 5,6 v 11.3 z"
   id="path1367"
   style="fill:#0a2e61;fill-opacity:1" />
	<path
   class="st1"
   d="m 200.5,63.3 v -17 h 3.1 v 16.9 h -3.1 z M 204.2,41 c 0,1.1 -1,2.1 -2.1,2.1 -1.1,0 -2.1,-0.9 -2.1,-2.1 0,-1.1 0.9,-2.1 2.1,-2.1 1.2,0 2.1,1 2.1,2.1 z"
   id="path1369"
   style="fill:#0a2e61;fill-opacity:1" />
	<polygon
   class="st1"
   points="209.4,46.3 214,59.2 214.1,59.2 219.1,46.3 222.2,46.3 215.1,63.4 212.8,63.4 206.1,46.3 "
   id="polygon1371"
   style="fill:#0a2e61;fill-opacity:1" />
	<path
   class="st1"
   d="m 230,48.5 c -2.4,0 -3.8,2.1 -3.8,4.5 h 7.5 c 0,-2.2 -1.2,-4.5 -3.7,-4.5 z m -3.8,7 c 0,3 1.9,5.5 5.3,5.5 1.5,0 3,-0.5 4.1,-1.2 l 0.9,2.1 c -1.5,1.1 -3.6,1.8 -5.6,1.8 -5.5,0 -8,-4.3 -8,-9 0,-4.7 2.8,-8.6 7.1,-8.6 4.3,0 7,3.5 7,8.7 0,0.2 0,0.5 0,0.8 z"
   id="path1373"
   style="fill:#0a2e61;fill-opacity:1" />
	<path
   class="st1"
   d="M 248.8,49.4 C 248.3,49.1 247.7,49 247,49 c -1,0 -2.5,0.8 -3.5,1.9 v 12.4 h -3.2 v -17 h 2.6 l 0.4,1.9 c 2.1,-1.9 3.4,-2.3 4.8,-2.3 0.8,0 1.5,0.3 1.9,0.6 z"
   id="path1375"
   style="fill:#0a2e61;fill-opacity:1" />
	<path
   class="st1"
   d="m 255.7,63.6 c -2.6,0 -4.2,-0.6 -5.4,-1.4 l 1.1,-2.4 c 0.9,0.6 2.4,1.3 4.3,1.3 2,0 3.3,-0.9 3.3,-2.3 0,-3.8 -7.7,-2.4 -7.7,-8.3 0,-2.6 2,-4.7 5.9,-4.7 1.9,0 3.3,0.4 4.5,0.9 v 2.7 c -1.3,-0.5 -2.6,-1 -4.4,-1 -1.6,0 -2.9,0.6 -2.9,1.9 0,3.4 7.9,2.5 7.9,8.1 -0.1,3.7 -3.1,5.2 -6.6,5.2 z"
   id="path1377"
   style="fill:#0a2e61;fill-opacity:1" />
	<path
   class="st1"
   d="m 265.4,63.3 v -17 h 3.1 v 16.9 h -3.1 z M 269.1,41 c 0,1.1 -1,2.1 -2.1,2.1 -1.1,0 -2.1,-0.9 -2.1,-2.1 0,-1.1 0.9,-2.1 2.1,-2.1 1.2,0 2.1,1 2.1,2.1 z"
   id="path1379"
   style="fill:#0a2e61;fill-opacity:1" />
	<path
   class="st1"
   d="m 283.3,49 c -0.6,-0.2 -1.2,-0.3 -2.4,-0.3 -3.2,0 -5.9,2.4 -5.9,6.2 0,3.6 2.1,6.2 6.1,6.2 0.8,0 1.7,-0.2 2.2,-0.4 z m -2.6,14.6 c -4.8,0 -8.9,-2.8 -8.9,-8.6 0,-5.3 3.9,-9.1 8.9,-9.1 1.1,0 1.9,0.1 2.5,0.2 V 38 h 3.2 v 24.4 c -1.1,0.7 -3.2,1.2 -5.7,1.2 z"
   id="path1381"
   style="fill:#0a2e61;fill-opacity:1" />
	<path
   class="st1"
   d="m 299.7,55.2 -3.1,0.1 c -2.8,0.1 -3.9,1 -3.9,2.8 0,1.6 1,2.9 3.1,2.9 2,0 3.2,-0.9 3.9,-1.6 z m 0.9,8.1 -0.7,-1.6 c -1.1,1 -2.7,2 -5.1,2 -2.9,0 -5.3,-2 -5.3,-5.2 0,-3.2 2.5,-5.4 6.9,-5.5 l 3.3,-0.1 v -0.7 c 0,-2.6 -1.5,-3.5 -3.5,-3.5 -2,0 -3.5,0.8 -4.4,1.5 l -1.2,-2.1 c 2.1,-1.5 4,-1.9 6.2,-1.9 3.5,0 6.1,1.5 6.1,5.9 v 5.7 c 0,4 0.1,5.2 0.4,5.8 z"
   id="path1383"
   style="fill:#0a2e61;fill-opacity:1" />
	<path
   class="st1"
   d="m 317.3,49 c -0.6,-0.2 -1.2,-0.3 -2.4,-0.3 -3.2,0 -5.9,2.4 -5.9,6.2 0,3.6 2.1,6.2 6.1,6.2 0.8,0 1.7,-0.2 2.2,-0.4 z m -2.6,14.6 c -4.8,0 -8.9,-2.8 -8.9,-8.6 0,-5.3 3.9,-9.1 8.9,-9.1 1.1,0 1.9,0.1 2.5,0.2 V 38 h 3.2 v 24.4 c -1.1,0.7 -3.2,1.2 -5.7,1.2 z"
   id="path1385"
   style="fill:#0a2e61;fill-opacity:1" />
	<path
   class="st1"
   d="m 330.5,48.5 c -2.4,0 -3.8,2.1 -3.8,4.5 h 7.5 c 0,-2.2 -1.2,-4.5 -3.7,-4.5 z m -3.7,7 c 0,3 1.9,5.5 5.3,5.5 1.5,0 3,-0.5 4.1,-1.2 l 0.9,2.1 c -1.5,1.1 -3.6,1.8 -5.6,1.8 -5.5,0 -8,-4.3 -8,-9 0,-4.9 2.8,-8.6 7.2,-8.6 4.4,0 7,3.5 7,8.7 v 0.8 z"
   id="path1387"
   style="fill:#0a2e61;fill-opacity:1" />
	<path
   class="st1"
   d="m 181.6,123.2 c -15.2,0 -23.9,-10.4 -23.9,-23.6 0,-13.4 10.1,-24.3 26,-24.3 4.8,0 9.1,0.9 12.2,2.5 l -0.1,8.7 c -4.1,-2.4 -8,-3.3 -11.7,-3.3 -11,0 -15.8,7.7 -15.8,15.7 0,8.9 5.7,15.9 15,15.9 4.3,0 8,-1.2 11.6,-3.2 l 2.6,6.8 c -5.5,3.5 -10.7,4.8 -15.9,4.8 z"
   id="path1389"
   style="fill:#0a2e61;fill-opacity:1" />
	<path
   class="st1"
   d="m 221.8,97.7 c -1.7,-1 -3.3,-1.2 -4.2,-1.2 -2,0 -3.8,0.7 -6.2,2.6 v 23.4 h -9.6 V 89 h 8.1 l 1.1,3.5 c 3,-2.7 5.7,-4.2 9.2,-4.2 1.6,0 3.6,0.5 5.1,1.6 z"
   id="path1391"
   style="fill:#0a2e61;fill-opacity:1" />
	<path
   class="st1"
   d="m 250.2,122.5 -1.5,-3.3 c -2.3,2.1 -5.7,4 -10.1,4 -4.4,0 -11.8,-2.2 -11.8,-13.5 V 89 h 9.6 v 20.3 c 0,3.8 1.8,6.4 5.9,6.4 2.2,0 4.1,-1.1 5.6,-2.2 V 89 h 9.6 v 25.8 c 0,3.4 0,6 0.6,7.7 z"
   id="path1393"
   style="fill:#0a2e61;fill-opacity:1" />
	<polygon
   class="st1"
   points="262.7,89 290.5,89 275.7,115.3 290.3,115.1 290.3,122.5 261.5,122.5 276.5,96.2 264.7,96.4 "
   id="polygon1395"
   style="fill:#0a2e61;fill-opacity:1" />
	<path
   class="st1"
   d="m 307.2,95.2 c -3.8,0 -6,3.5 -6,6.6 h 12.1 c -0.2,-3.2 -2,-6.6 -6.1,-6.6 z m -5.8,13.2 c 0.2,4.5 4.5,7.2 8.9,7.2 3.3,0 5.7,-0.6 9,-2.3 l 2.2,6.1 c -4.2,2.8 -8.8,3.8 -12.8,3.8 -12,0 -17,-8.5 -17,-17.3 0,-9.5 5.7,-17.7 15.7,-17.7 9.2,0 15.6,6.9 15.6,17.3 v 2.9 z"
   id="path1397"
   style="fill:#0a2e61;fill-opacity:1" />
	<path
   class="st1"
   d="M 329,122.5 V 89 h 9.6 v 33.5 z m 4.8,-38.1 c -3.3,0 -5.8,-2.5 -5.8,-5.6 0,-3.1 2.5,-5.6 5.8,-5.6 3.3,0 5.8,2.4 5.8,5.6 0,3.2 -2.4,5.6 -5.8,5.6 z"
   id="path1399"
   style="fill:#0a2e61;fill-opacity:1" />
	<path
   class="st1"
   d="m 366.1,97.7 c -1.7,-1 -3.3,-1.2 -4.3,-1.2 -2,0 -3.8,0.7 -6.2,2.6 v 23.4 H 346 V 89 h 8.1 l 1.1,3.5 c 3,-2.7 5.7,-4.2 9.2,-4.2 1.6,0 3.6,0.5 5.1,1.6 z"
   id="path1401"
   style="fill:#0a2e61;fill-opacity:1" />
	<path
   class="st1"
   d="m 385.8,95.7 c -5,0 -7.4,4.3 -7.4,10.1 0,6 2.8,10.1 7.6,10.1 5.1,0 7.4,-4.4 7.4,-10.1 0,-6 -2.8,-10.1 -7.6,-10.1 z m 12.7,22.5 c -3,3.1 -7.4,5 -12.6,5 -4.9,0 -9,-1.5 -11.9,-4.2 -3.5,-3.1 -5.4,-7.7 -5.4,-13 0,-5.3 1.8,-9.6 5,-12.8 3,-3.1 7.3,-5 12.3,-5 5.5,0 9.9,1.8 12.9,5 3,3.1 4.5,7.4 4.5,12.3 0,4.9 -1.7,9.6 -4.8,12.7 z"
   id="path1403"
   style="fill:#0a2e61;fill-opacity:1" />
	<path
   class="st1"
   d="m 446,96.1 c -1.1,-0.2 -2,-0.4 -3.6,-0.4 -5.9,0 -9.7,3.6 -9.7,9.7 0,5.6 3.9,9.8 9.7,9.8 1.3,0 2.6,-0.1 3.6,-0.3 z m -4.3,27.1 c -10.3,0 -18.6,-6 -18.6,-17.3 0,-10.4 7.7,-17.7 19,-17.7 1.5,0 2.7,0.1 3.9,0.2 V 72.3 h 9.6 v 48.1 c -3.6,1.8 -7.9,2.8 -13.9,2.8 z"
   id="path1405"
   style="fill:#0a2e61;fill-opacity:1" />
	<path
   class="st1"
   d="m 477.5,95.7 c -5,0 -7.4,4.3 -7.4,10.1 0,6 2.8,10.1 7.6,10.1 5.1,0 7.4,-4.4 7.4,-10.1 0,-6 -2.8,-10.1 -7.6,-10.1 z m 12.7,22.5 c -3,3.1 -7.4,5 -12.6,5 -4.9,0 -9,-1.5 -11.9,-4.2 -3.5,-3.1 -5.4,-7.7 -5.4,-13 0,-5.3 1.8,-9.6 5,-12.8 3,-3.1 7.3,-5 12.3,-5 5.5,0 9.9,1.8 12.9,5 3,3.1 4.5,7.4 4.5,12.3 0,4.9 -1.7,9.6 -4.8,12.7 z"
   id="path1407"
   style="fill:#0a2e61;fill-opacity:1" />
	<path
   class="st1"
   d="m 527.4,123.2 c -6.7,0 -11.5,-2.2 -14.9,-4.4 l 3.8,-7 c 2.9,1.9 6.5,3.6 10.7,3.6 3.4,0 7.2,-1.3 7.2,-4.8 0,-6.2 -11.3,-7.2 -17,-13.7 -1.8,-2.1 -3,-4.7 -3,-8.3 0,-7.1 5.6,-13.3 15.9,-13.3 5,0 9.1,1.3 11.8,2.8 l -0.2,8.4 c -4,-2.1 -7.3,-3.4 -11.1,-3.4 -3.5,0 -6.2,1.6 -6.2,4.2 0,8.1 20.1,7.4 20.1,22 0,8.6 -7.5,13.9 -17.1,13.9 z"
   id="path1409"
   style="fill:#0a2e61;fill-opacity:1" />
	<path
   class="st1"
   d="m 572.4,122.5 -1.5,-3.3 c -2.3,2.1 -5.7,4 -10.1,4 -4.4,0 -11.8,-2.2 -11.8,-13.5 V 89 h 9.6 v 20.3 c 0,3.8 1.8,6.4 6,6.4 2.2,0 4.1,-1.1 5.6,-2.2 V 89 h 9.7 v 25.8 c 0,3.4 0,6 0.6,7.7 z"
   id="path1411"
   style="fill:#0a2e61;fill-opacity:1" />
	<path
   class="st1"
   d="m 594.9,123.2 c -6,0 -8.3,-3.4 -8.3,-7.8 V 72.3 h 9.6 v 38.9 c 0,2.3 0.3,3.3 2,3.3 0.6,0 1.4,-0.1 2.7,-0.3 l 1.2,7.2 c -2.7,1.5 -5.1,1.8 -7.2,1.8 z"
   id="path1413"
   style="fill:#0a2e61;fill-opacity:1" />
</g></g></g>
</svg>
