<?xml version="1.0" encoding="UTF-8" standalone="no"?>
<!-- Created with Inkscape (http://www.inkscape.org/) -->

<svg
   width="61.336563mm"
   height="23.002495mm"
   viewBox="0 0 61.336563 23.002495"
   version="1.1"
   id="svg5"
   xml:space="preserve"
   xmlns:inkscape="http://www.inkscape.org/namespaces/inkscape"
   xmlns:sodipodi="http://sodipodi.sourceforge.net/DTD/sodipodi-0.dtd"
   xmlns="http://www.w3.org/2000/svg"
   xmlns:svg="http://www.w3.org/2000/svg"><sodipodi:namedview
     id="namedview7"
     pagecolor="#ffffff"
     bordercolor="#000000"
     borderopacity="0.25"
     inkscape:showpageshadow="2"
     inkscape:pageopacity="0.0"
     inkscape:pagecheckerboard="0"
     inkscape:deskcolor="#d1d1d1"
     inkscape:document-units="mm"
     showgrid="false" /><defs
     id="defs2" /><g
     inkscape:label="Camada 1"
     inkscape:groupmode="layer"
     id="layer1"
     transform="translate(285.14234,-115.00277)"><g
       id="g1279"><g
         id="g1283"
         transform="matrix(0.09108479,0,0,0.09108479,-259.17022,125.43507)"
         inkscape:export-filename="g1283.svg"
         inkscape:export-xdpi="96"
         inkscape:export-ydpi="96"><path
           style="fill:#a435f0;fill-opacity:1;stroke:none;stroke-width:0.264583"
           d="m -284.84165,-54.893446 c 4.66529,-1.47638 9.2611,-5.10408 13.49375,-7.56074 8.36126,-4.85245 16.73569,-9.68824 25.13542,-14.47403 3.2766,-1.8669 6.51113,-3.80815 9.78958,-5.67213 1.07606,-0.61172 2.68023,-1.98094 3.96875,-1.90871 1.45626,0.0818 3.25464,1.61396 4.49791,2.32384 3.44911,1.96876 6.90219,3.9407 10.31875,5.96556 8.05366,4.77255 16.22002,9.37313 24.34167,14.02926 4.16454,2.3876 8.45555,5.65547 12.96458,7.29695 v -21.43125 c 0,-2.07778 0.85355,-6.5913 -0.27199,-8.36348 -0.65008,-1.02394 -2.41009,-1.63248 -3.43217,-2.21986 -2.64742,-1.52162 -5.28426,-3.06048 -7.9375,-4.57223 -9.46256,-5.39145 -18.91956,-10.817264 -28.31042,-16.332714 -2.90063,-1.70354 -5.81395,-3.38923 -8.73125,-5.06382 -1.0459,-0.6004 -2.43522,-1.74303 -3.70417,-1.65203 -1.20623,0.0865 -2.42331,1.14786 -3.43958,1.73122 l -7.9375,4.56979 c -9.36334,5.36808 -18.68249,10.813214 -28.04583,16.181234 -3.00186,1.72101 -6.02292,3.42112 -8.99583,5.19173 -1.02434,0.60987 -2.75133,1.2118 -3.43224,2.22489 -1.10396,1.64227 -0.27193,6.08435 -0.27193,8.04068 v 21.69584"
           id="path1275"
           sodipodi:nodetypes="ccsccccccsccccssccsccsc" /><path
           style="fill:#0c0512;stroke:none;stroke-width:0.264583"
           d="m -73.704158,-72.885116 v 53.71042 c -9.04398,-6.81593 -18.84362,-11.00296 -30.162502,-12.21476 -8.03142,-0.85989 -16.6452,-0.19526 -24.34166,2.33813 -5.51815,1.8161 -10.70081,4.50691 -15.34583,7.99094 -32.07756,24.0604202 -31.56427,77.85762 2.91041,99.69712 5.284,3.34724 11.06302,5.86581 17.19792,7.17233 8.12138,1.72958 16.69732,1.95474 24.870832,0.42333 9.39562,-1.76054 17.47308,-5.7404 24.87083,-11.74459 v 7.14375 c 0,0.76994 -0.2413,2.10291 0.27199,2.75087 0.91202,1.15147 5.48561,0.42413 6.871762,0.42413 h 20.108333 V -72.885116 H -73.704158 M 76.843756,64.962804 c -4.815416,-2.24764 -9.456208,-5.27129 -14.022916,-7.99068 -1.550458,-0.92393 -4.243916,-3.2049 -6.085416,-3.20199 -1.785938,0.003 -4.111625,2.72706 -5.55625,3.69041 -3.683,2.45533 -7.65175,4.25873 -11.90625,5.46232 -19.047353,5.38903 -45.0400188,-4.35028 -45.5083318,-27.06423 h 65.3520808 16.66875 c 1.426104,0 5.013854,0.65035 6.154208,-0.27199 0.769938,-0.62256 0.433917,-2.29447 0.537104,-3.16759 0.359834,-3.05567 0.264584,-6.19813 0.1905,-9.26042 -0.357187,-14.8730198 -5.508625,-28.5699698 -15.888228,-39.42292 -20.912666,-21.86992 -60.1794778,-21.36192 -82.010248,-1.03478 -11.42603,10.6394202 -16.918251,25.1306502 -17.968118,40.4577 -1.361016,19.87497 5.031846,39.7084 21.143118,52.21155 19.6982292,15.28551 50.622728,16.0446 71.966664,3.84043 5.865813,-3.35386 13.485812,-8.28199 16.933333,-14.24781 m 46.037504,-82.55 v -11.64167 H 95.893756 v 114.03542 h 26.987504 v -49.2125 c 0,-8.65955 -1.24355,-18.4023 1.60866,-26.7229198 4.318,-12.59787 19.22992,-21.3539902 31.46425,-13.09158 9.07256,6.1259 9.525,17.2838998 9.525,27.1144998 v 61.9125 h 26.9875 v -50.00625 c 0,-9.12389 -1.25677,-19.12805 2.16958,-27.7812498 5.45306,-13.76416 25.2386,-20.3692102 35.3986,-7.40833999 5.54302,7.07442999 5.29432,15.84457979 5.29432,24.34166979 v 38.36459 16.66875 c 0,1.1975 -0.59532,4.74054 0.42333,5.54884 1.31498,1.04087 5.60387,0.27199 7.24958,0.27199 h 19.57917 v -53.71042 c 0,-18.65841 1.67481,-40.5039998 -14.02292,-53.97473 -2.29394,-1.96824 -4.92125,-3.68512 -7.67291,-4.9456 -5.40015,-2.47438 -10.63361,-2.91597 -16.40417,-3.59701 -5.9981,-0.70776 -13.0466,0.45138 -18.78542,2.28336 -5.26521,1.6809 -10.22614,4.24524 -14.55208,7.7007 -2.50825,2.00395 -4.53231,4.65693 -7.14375,6.49578 -1.53458,-4.1947 -5.4266,-7.90945 -8.99583,-10.42723 -11.29506,-7.96925 -27.82358,-8.00232 -39.95208,-1.93675 -4.79954,2.39951 -8.44815,5.96556 -12.17083,9.71815 m -407.72291,-11.64167 v 55.5625 c 0,11.66707 -0.92098,24.0538 4.17555,34.925 16.19774,34.55035 75.16717,35.69203 94.35422,3.43959 6.64633,-11.17204 5.98064,-24.29114 5.98064,-36.77709 v -57.15 h -27.25208 v 53.18125 c 0,9.36122 1.1684,19.51858 -4.15343,27.78125 -10.28118,15.96205 -35.57799,14.03641 -43.42447,-3.175 -3.72121,-8.16266 -2.42835,-18.25122 -2.42835,-26.9875 v -50.8 h -27.25208 m 550.06873,0 c 3.18558,9.41335 7.47183,18.57666 11.21833,27.7812502 7.49565,18.4171198 14.99923,36.8358198 22.38375,55.2979198 3.00302,7.50438 5.97959,15.03653 9.10696,22.48958 1.15094,2.7432 3.91054,7.06358 3.82058,10.05417 -0.0714,2.35162 -2.06904,5.26177 -2.9845,7.40833 -3.0136,7.058286 -6.40027,16.543076 -14.44095,19.176996 -3.42371,1.12157 -7.29457,0.66675 -10.84792,0.66675 -0.96044,0 -3.29142,-0.42333 -3.96081,0.42413 -0.9525,1.20306 -0.27252,4.95829 -0.27252,6.45504 v 17.4625 c 12.93018,0 25.55875,0.7911 35.98333,-8.27855 8.20208,-7.13608 13.12333,-17.62733 17.30904,-27.4402 3.72269,-8.723576 7.44273,-17.448206 11.1125,-26.193746 9.78694,-23.3217 19.84904,-46.5283 29.63333,-69.8499998 4.92919,-11.7438 10.89025,-23.3920802 14.97013,-35.4541702 h -20.10834 l -7.54062,0.27199 -2.88396,6.34259 -6.61458,16.1395902 -24.765,60.3249998 c -9.17046,-19.60377 -16.25071,-40.49131 -24.28875,-60.5895898 l -6.45583,-16.1395802 c -0.62177,-1.55443 -1.31763,-5.10804 -2.72521,-6.07801 -1.52929,-1.05277 -5.71236,-0.27199 -7.54063,-0.27199 H 265.22708 M 55.147924,14.691974 H -5.4416578 C -5.3781578,7.0502742 0.61465521,0.07744421 6.7291752,-3.8145758 19.421237,-11.894426 36.563591,-11.388276 47.729007,-0.96236579 52.091986,3.1116842 55.132049,8.6131642 55.147924,14.691974 M -110.48124,-6.9281958 c 12.828062,-1.53432 25.679142,4.13332 33.062602,14.741 7.96078,11.4371398 7.83669,28.2056398 0.0974,39.6874998 -2.46962,3.66342 -5.91899,7.0776 -9.61204,9.5041 -4.90988,3.22633 -10.35844,4.81727 -16.139592,5.50148 -3.65469,0.43286 -7.52131,0.0384 -11.1125,-0.66622 -29.55475,-5.79808 -35.17847,-49.24849 -10.05416,-64.2257598 4.24497,-2.53047 8.87121,-3.95763 13.75833,-4.5421 z"
           id="path418"
           sodipodi:nodetypes="ccccccsccscsccccccccccsccccccccccccccsccsccsccscscscsccccccccccsccsccscssccccccccsscscsccccccccccscsccccccccccccccc" /></g></g></g></svg>
