<?xml version="1.0" encoding="UTF-8" standalone="no"?>
<!-- Created with Inkscape (http://www.inkscape.org/) -->

<svg
   width="81.011688mm"
   height="20.536331mm"
   viewBox="0 0 81.011688 20.536331"
   version="1.1"
   id="svg5"
   xml:space="preserve"
   xmlns="http://www.w3.org/2000/svg"
   xmlns:svg="http://www.w3.org/2000/svg"><defs
     id="defs2" /><g
     id="layer1"
     transform="translate(479.82453,-239.26041)"><path
       style="fill:#fbae17;fill-opacity:1;stroke-width:0.0465885"
       d="m -466.11143,259.75498 c -0.27911,-0.0808 -0.66645,-0.39622 -2.02059,-1.64514 -0.74752,-0.68945 -1.75013,-1.61019 -2.22802,-2.04611 -0.4779,-0.43592 -1.07108,-0.97797 -1.31821,-1.2046 l -0.44932,-0.41202 -0.23203,0.18341 c -0.384,0.30353 -3.90751,2.94283 -4.48325,3.35819 -0.29469,0.2126 -0.67028,0.44998 -0.83466,0.52753 -0.28362,0.13379 -0.31189,0.13828 -0.55296,0.0877 -0.68662,-0.14402 -0.91627,-0.74922 -0.64239,-1.69293 0.14051,-0.48415 0.52876,-1.44853 0.99029,-2.45973 0.39881,-0.87376 1.37245,-2.83376 1.5962,-3.21324 0.0816,-0.1383 0.12955,-0.264 0.10665,-0.27934 -0.27884,-0.18695 -2.15462,-1.79431 -2.25389,-1.93135 -0.24013,-0.33149 -0.13214,-0.67982 0.27466,-0.88597 0.36057,-0.18272 2.12684,-0.82694 3.39359,-1.23779 l 1.16906,-0.37915 0.36511,-0.59211 c 1.03544,-1.67915 2.98139,-4.54651 3.25948,-4.80283 0.32413,-0.29879 0.77565,-0.30054 1.113,-0.005 0.20428,0.17937 0.26414,0.40327 0.46679,1.74586 0.089,0.58935 0.20928,1.37254 0.2674,1.74043 l 0.10566,0.66888 0.18861,-0.0243 c 0.9769,-0.12599 1.89703,-0.22313 2.518,-0.26585 1.41922,-0.0976 3.92294,-0.0465 4.39,0.0896 0.47754,0.13914 0.75804,0.46396 0.75804,0.87785 0,0.48937 -0.18708,0.66886 -1.537,1.47467 -1.16737,0.6968 -2.62396,1.622 -4.10021,2.60435 -0.57653,0.38364 -1.05597,0.7041 -1.06541,0.71215 -0.0402,0.0342 0.8274,3.12169 1.18586,4.22042 0.11969,0.36695 0.40344,1.17552 0.6305,1.79683 0.4273,1.16925 0.54067,1.62769 0.48853,1.97546 -0.0398,0.26551 -0.26456,0.6542 -0.46795,0.80932 -0.29015,0.22132 -0.73357,0.30506 -1.08158,0.20427 z m -0.92786,-2.25848 c 0.0403,-0.0403 0.0733,-0.11369 0.0733,-0.16325 0,-0.0495 -0.13787,-0.5145 -0.30637,-1.03328 -0.32374,-0.99661 -0.77265,-2.53553 -1.07365,-3.68049 -0.0994,-0.37806 -0.20165,-0.67942 -0.22729,-0.66968 -0.0958,0.0363 -2.77201,1.94992 -2.77201,1.98205 0,0.043 3.93409,3.5026 4.06866,3.57798 0.13253,0.0743 0.15093,0.0733 0.23745,-0.0134 z m -9.77404,-1.77561 c 0.73612,-0.50215 3.3027,-2.35165 3.31596,-2.38951 0.0204,-0.0578 -2.10354,-1.86693 -2.14428,-1.82646 -0.0367,0.0365 -0.91407,1.87628 -1.46915,3.08101 -0.38848,0.84313 -0.46898,1.17604 -0.31215,1.29071 0.14401,0.10534 0.27656,0.0714 0.60962,-0.15575 z m 5.46791,-3.88341 c 0.70466,-0.47821 1.52752,-1.03307 1.82861,-1.23301 0.30108,-0.19995 0.54742,-0.38787 0.54742,-0.41762 0,-0.0297 -0.0927,-0.47201 -0.20617,-0.98281 -0.11345,-0.51081 -0.2843,-1.32264 -0.37979,-1.80406 l -0.17364,-0.87533 -0.2142,0.0295 c -0.44167,0.061 -2.39828,0.39498 -2.8351,0.48394 -0.32619,0.0663 -0.47605,0.11957 -0.53246,0.18868 -0.0877,0.10752 -0.83042,1.42626 -1.48231,2.63196 -0.27774,0.51372 -0.41413,0.81212 -0.38862,0.85021 0.0997,0.14895 2.45312,2.05872 2.50141,2.02994 0.0296,-0.0176 0.6302,-0.42325 1.33485,-0.90148 z m -4.06525,-2.20037 c 0.18555,-0.33901 0.5544,-0.98329 0.81967,-1.43169 0.26526,-0.44842 0.46614,-0.82179 0.44636,-0.8297 -0.0927,-0.0371 -2.30034,0.5927 -3.02433,0.86291 -0.42697,0.15932 -0.51248,0.22332 -0.51248,0.38352 0,0.11994 0.10534,0.21846 0.94342,0.88203 0.51889,0.41084 0.95389,0.74752 0.96671,0.74816 0.0129,6.1e-4 0.17511,-0.2762 0.36065,-0.61523 z m 9.97582,-1.70709 c 0.99544,-0.66397 1.85574,-1.26548 1.91176,-1.3367 0.056,-0.0712 0.0956,-0.17214 0.0882,-0.22425 -0.0299,-0.20626 -0.15805,-0.22211 -1.55114,-0.19197 -1.16911,0.0253 -2.79268,0.12331 -2.84085,0.17148 -0.01,0.01 0.0967,0.57359 0.23765,1.25211 0.14084,0.67853 0.26804,1.30181 0.28266,1.38508 0.0146,0.0834 0.0345,0.15141 0.0442,0.15141 0.01,0 0.83209,-0.54322 1.82754,-1.20716 z m -6.02703,-1.96222 c 0.66622,-0.15459 1.28468,-0.29743 1.37437,-0.31741 0.1549,-0.0346 0.16258,-0.0455 0.15368,-0.21983 -0.0219,-0.42824 -0.34235,-2.23239 -0.40823,-2.29827 -0.15335,-0.15336 -0.35079,0.0667 -1.29174,1.43923 -0.59581,0.86908 -1.11324,1.67716 -1.07403,1.67727 0.0191,6e-5 0.57974,-0.12637 1.24595,-0.28099 z m -8.36264,-6.68409 c 0,-0.0128 0.011,-0.0233 0.0233,-0.0233 0.0129,0 0.0233,0.011 0.0233,0.0233 0,0.0129 -0.011,0.0233 -0.0233,0.0233 -0.0128,0 -0.0233,-0.011 -0.0233,-0.0233 z"
       id="path355" /><path
       style="fill:#0a2e61;fill-opacity:1;stroke-width:0.0465885"
       d="m -456.46037,256.80472 c -1.3085,-0.30208 -2.14607,-1.16443 -2.37925,-2.44962 -0.27526,-1.51709 0.41048,-2.93372 1.72495,-3.56351 0.62458,-0.29924 0.95312,-0.36976 1.72583,-0.37045 0.6734,-6.1e-4 0.93854,0.0391 1.39048,0.20821 l 0.26342,0.0985 v 0.58399 c 0,0.44975 -0.0134,0.57811 -0.0582,0.55845 -0.80449,-0.35279 -1.32211,-0.45224 -1.91014,-0.36694 -1.08529,0.1574 -1.75872,0.955 -1.75872,2.083 0,0.84247 0.41937,1.60071 1.06848,1.93186 0.61082,0.31161 1.43918,0.28262 2.25193,-0.0788 0.14787,-0.0658 0.27524,-0.11125 0.28302,-0.1011 0.0347,0.0452 0.31001,0.82123 0.31001,0.87398 0,0.074 -0.76933,0.43951 -1.14142,0.54222 -0.38453,0.1061 -1.40301,0.13503 -1.77035,0.0502 z m 8.01322,0.003 c -0.52689,-0.17513 -0.8453,-0.49545 -1.00611,-1.0121 -0.0802,-0.2574 -0.0887,-0.44309 -0.0887,-1.91154 v -1.62645 h 0.65225 0.65225 l 8e-5,1.52577 c 5e-5,1.36055 0.009,1.54308 0.0816,1.68552 0.12616,0.24743 0.2956,0.34584 0.62937,0.36552 0.24744,0.0146 0.32879,-0.003 0.54691,-0.11431 l 0.25624,-0.13144 0.0123,-1.66553 0.0123,-1.66555 h 0.65165 0.65164 l 5.1e-4,2.08483 c 2.8e-4,1.14667 0.0135,2.16347 0.0294,2.25955 l 0.0289,0.17471 h -0.53799 -0.53801 l -0.0799,-0.20965 c -0.0441,-0.11528 -0.0891,-0.20964 -0.10012,-0.20964 -0.011,0 -0.0877,0.0515 -0.17034,0.11455 -0.31392,0.23943 -0.6684,0.36256 -1.09584,0.38065 -0.25395,0.011 -0.47007,-0.007 -0.58792,-0.045 z m 9.31771,-0.003 c -0.53491,-0.13416 -0.93996,-0.39854 -1.20896,-0.78912 -0.65118,-0.94551 -0.56652,-2.39973 0.18862,-3.23962 0.54982,-0.61152 1.62303,-0.80404 2.40248,-0.431 0.75324,0.36051 1.20029,1.17268 1.20271,2.18501 l 8.1e-4,0.33776 h -1.46843 -1.46841 l 0.0307,0.12813 c 0.0952,0.39603 0.3999,0.69271 0.83215,0.81022 0.26126,0.071 0.83312,0.0225 1.16543,-0.099 0.15376,-0.0561 0.31099,-0.11185 0.34941,-0.12372 0.0515,-0.0159 0.10361,0.0737 0.19847,0.34185 0.0707,0.19987 0.12836,0.38884 0.12812,0.41992 -7e-4,0.0855 -0.63203,0.36731 -1.01132,0.45146 -0.3929,0.0873 -1.01156,0.0909 -1.34186,0.009 z m 1.2538,-2.95026 c -0.12596,-0.5536 -0.48722,-0.82821 -0.9703,-0.73759 -0.30173,0.0566 -0.62887,0.45053 -0.6319,0.7609 -8.5e-4,0.10468 -4.8e-4,0.10489 0.81517,0.10489 h 0.81619 z m 9.15872,2.94247 c -0.85019,-0.22568 -1.42045,-0.83595 -1.60678,-1.71952 -0.0864,-0.40976 -0.0867,-0.66071 -8.5e-4,-1.06384 0.18242,-0.86093 0.75691,-1.51003 1.55454,-1.75643 0.35606,-0.11002 1.01901,-0.12968 1.38724,-0.0412 0.82748,0.19887 1.4518,0.83846 1.62748,1.66733 0.12811,0.60442 0.0589,1.22322 -0.1977,1.76827 -0.15418,0.32747 -0.60729,0.79137 -0.93527,0.95757 -0.49854,0.25263 -1.28106,0.33302 -1.82818,0.18779 z m 1.01345,-0.96629 c 0.40116,-0.14551 0.62017,-0.53927 0.6534,-1.17471 0.0485,-0.92824 -0.33457,-1.48798 -1.0146,-1.4823 -0.30589,0.003 -0.50082,0.0942 -0.69121,0.32526 -0.41377,0.50197 -0.36666,1.70434 0.0837,2.13579 0.24129,0.23117 0.64597,0.31303 0.96872,0.19596 z m 6.50477,0.97402 c -1.13179,-0.25834 -1.79299,-1.09287 -1.79299,-2.26302 0,-1.16925 0.65138,-2.00399 1.79883,-2.30524 0.17047,-0.0448 0.47492,-0.0736 0.78034,-0.0737 l 0.50085,-3.5e-4 v -1.0932 -1.09321 h 0.65223 0.65224 v 3.26359 3.26357 l -0.1747,0.0745 c -0.0961,0.041 -0.32147,0.11517 -0.50083,0.16479 -0.43356,0.12007 -1.50972,0.15499 -1.91597,0.0622 z m 1.14143,-1.03424 0.1456,-0.0292 v -1.26934 -1.26935 l -0.26791,-0.0304 c -0.50734,-0.0574 -1.04957,0.12868 -1.26772,0.43505 -0.27618,0.38785 -0.33648,0.99102 -0.14347,1.43473 0.24201,0.55635 0.87952,0.85913 1.5335,0.72834 z m 3.74523,1.02883 c -0.76652,-0.20643 -1.35812,-0.78098 -1.57355,-1.52813 -0.0914,-0.31695 -0.10447,-1.01184 -0.0256,-1.35306 0.0866,-0.37468 0.27648,-0.71777 0.57174,-1.03339 0.48514,-0.51865 0.96963,-0.72267 1.71395,-0.72182 0.74751,8.3e-4 1.26078,0.19349 1.69978,0.63799 0.41361,0.4188 0.62964,0.99207 0.62964,1.67093 0,1.16948 -0.67564,2.07948 -1.72811,2.32756 -0.36958,0.0872 -0.96417,0.0872 -1.28782,-6e-5 z m 1.19944,-1.06438 c 0.117,-0.0775 0.22154,-0.20823 0.30942,-0.3872 0.12349,-0.2515 0.13271,-0.30906 0.13271,-0.82933 0,-0.51919 -0.009,-0.57628 -0.12744,-0.80075 -0.20962,-0.39756 -0.61229,-0.61679 -1.00302,-0.54607 -0.35418,0.064 -0.54538,0.22429 -0.71866,0.60198 -0.0904,0.19703 -0.10665,0.31029 -0.10708,0.74484 -4.9e-4,0.46872 0.011,0.53539 0.13123,0.78076 0.13521,0.27533 0.34429,0.47469 0.5757,0.54895 0.22112,0.0709 0.6117,0.0163 0.80716,-0.1132 z m 5.63676,1.10621 c -0.37408,-0.0745 -0.71429,-0.1831 -1.00166,-0.31988 -0.47315,-0.22522 -0.46327,-0.21421 -0.35857,-0.39996 0.0491,-0.0873 0.16571,-0.29832 0.25895,-0.46905 l 0.1695,-0.3104 0.2446,0.13575 c 0.52219,0.28979 1.21068,0.40252 1.67351,0.27396 0.20889,-0.0581 0.44167,-0.26707 0.48367,-0.43436 0.10109,-0.40263 -0.14335,-0.67104 -1.06116,-1.16537 -0.76888,-0.41412 -1.1322,-0.68444 -1.33845,-0.99583 -0.55514,-0.83812 -0.25385,-2.00299 0.63833,-2.46795 0.41167,-0.21455 0.67406,-0.26971 1.26964,-0.26693 0.5527,0.003 0.9332,0.0744 1.3343,0.25183 l 0.20312,0.0898 v 0.56667 c 0,0.43537 -0.0135,0.56098 -0.0582,0.54211 -0.82087,-0.34622 -1.02539,-0.40377 -1.43259,-0.40314 -0.34309,5.6e-4 -0.64236,0.11174 -0.76255,0.28329 -0.0428,0.0611 -0.076,0.19961 -0.076,0.31687 0,0.19103 0.0206,0.22781 0.24781,0.44388 0.16612,0.15791 0.46719,0.35075 0.91331,0.585 0.79832,0.41914 1.14552,0.70953 1.35354,1.13206 0.38354,0.77911 0.13193,1.72184 -0.58849,2.20487 -0.44795,0.30036 -0.78055,0.39628 -1.43699,0.41444 -0.30747,0.009 -0.61146,0.005 -0.67553,-0.008 z m 4.58896,-0.0352 c -0.45492,-0.14387 -0.78116,-0.45038 -0.96466,-0.90634 -0.10218,-0.25396 -0.10632,-0.32164 -0.12067,-1.95192 l -0.0148,-1.68883 h 0.65489 0.6549 v 1.50424 c 0,1.46835 0.003,1.50914 0.1049,1.70869 0.19824,0.38661 0.7065,0.49493 1.19052,0.25374 l 0.24208,-0.12069 v -1.67301 -1.67302 h 0.67553 0.67554 v 2.11396 c 0,1.16267 0.013,2.17948 0.0292,2.25954 l 0.0292,0.1456 h -0.54064 -0.54064 l -0.0999,-0.19801 c -0.1301,-0.25797 -0.11921,-0.25143 -0.23999,-0.14468 -0.42058,0.37189 -1.20297,0.53903 -1.73525,0.37069 z m 4.66577,0.0204 c -0.2212,-0.0712 -0.43855,-0.24593 -0.55185,-0.44352 l -0.1073,-0.18716 -0.0129,-3.10978 -0.0129,-3.10977 h 0.6535 0.65352 v 2.76164 c 0,3.18707 -0.0249,3.00093 0.39626,2.95143 l 0.24331,-0.0285 0.0573,0.36072 c 0.0315,0.1984 0.0685,0.4184 0.082,0.48889 0.0226,0.1165 0.003,0.13724 -0.20179,0.22836 -0.25231,0.11161 -0.9635,0.16367 -1.19916,0.0878 z m -52.72183,-2.30786 v -2.25955 h 0.55301 0.55301 l 0.0588,0.20965 c 0.0324,0.11528 0.0792,0.20965 0.10414,0.20965 0.0249,0 0.10917,-0.0535 0.18695,-0.11908 0.0777,-0.0655 0.24856,-0.17525 0.37943,-0.24393 0.20369,-0.10698 0.29495,-0.12493 0.63395,-0.12514 0.29293,-2e-4 0.43604,0.0215 0.54978,0.0834 0.1804,0.098 0.18214,0.0868 -0.11062,0.7176 l -0.19983,0.43056 -0.17622,-0.0736 c -0.27483,-0.11481 -0.69811,-0.0704 -0.97828,0.10294 l -0.22624,0.13986 -0.0122,1.59367 -0.0123,1.5937 h -0.65162 -0.65163 z m 8.10641,2.23733 c 0,-0.0124 0.43176,-0.78092 0.95948,-1.70821 0.52772,-0.92729 0.97023,-1.71397 0.98333,-1.74814 0.0194,-0.0503 -0.12605,-0.0621 -0.76246,-0.0621 h -0.78631 l -0.11113,-0.43095 c -0.0611,-0.23701 -0.12056,-0.45714 -0.13211,-0.48918 -0.0166,-0.046 0.37361,-0.0582 1.85255,-0.0582 1.48013,0 1.86861,0.0122 1.85027,0.0582 -0.0128,0.0321 -0.45483,0.82346 -0.98231,1.75872 l -0.95905,1.70048 0.97731,0.0126 0.9773,0.0126 v 0.48826 0.48825 h -1.93342 c -1.06338,0 -1.93343,-0.01 -1.93343,-0.0221 z m 9.08476,-2.23733 v -2.25955 h 0.65224 0.65223 v 2.25955 2.25955 h -0.65223 -0.65224 z m 2.32942,-8.5e-4 v -2.26101 l 0.54518,0.0131 0.54519,0.0131 0.0675,0.21752 0.0675,0.21751 0.24625,-0.18592 c 0.13542,-0.10229 0.35262,-0.22633 0.48266,-0.27574 0.36633,-0.13919 0.86468,-0.10818 1.12803,0.0703 0.0811,0.055 0.0675,0.0975 -0.28684,0.8987 l -0.0872,0.19691 -0.16466,-0.0689 c -0.2333,-0.0975 -0.61638,-0.0852 -0.86563,0.0279 -0.40135,0.18203 -0.37356,0.0465 -0.37356,1.82057 v 1.5768 h -0.65225 -0.65222 z m -1.85783,-2.91052 c -0.69343,-0.16317 -0.79524,-1.09084 -0.15407,-1.40376 0.50224,-0.24511 1.06291,0.0576 1.11522,0.60195 0.0512,0.53346 -0.4224,0.92859 -0.96115,0.80181 z m -22.52857,-2.86461 c -0.26236,-0.0935 -0.40534,-0.21217 -0.53847,-0.44709 -0.11503,-0.20297 -0.11662,-0.22094 -0.13089,-1.45176 l -0.0145,-1.24625 h 0.21014 0.21017 l 0.014,1.15308 c 0.0128,1.05666 0.0219,1.16828 0.10941,1.33514 0.12309,0.23463 0.3452,0.35369 0.65986,0.35369 0.37297,0 0.61228,-0.11528 0.71666,-0.34504 0.0768,-0.16924 0.0867,-0.32063 0.0876,-1.34379 l 8.5e-4,-1.15308 h 0.23647 0.23648 l -0.0152,1.17638 c -0.0141,1.09546 -0.0221,1.1916 -0.11761,1.39804 -0.20285,0.43925 -0.57665,0.64215 -1.17562,0.63816 -0.16831,-8.5e-4 -0.38866,-0.0315 -0.48967,-0.0675 z m 6.34298,0.011 c -0.16108,-0.39704 -0.87151,-2.23192 -0.87151,-2.25088 0,-0.014 0.0983,-0.019 0.21841,-0.011 l 0.21844,0.0141 0.29308,0.81529 c 0.16119,0.44843 0.30049,0.83623 0.30954,0.86179 0.0141,0.04 0.28016,-0.60642 0.59914,-1.45579 l 0.0918,-0.24459 h 0.21129 c 0.1499,0 0.20479,0.0169 0.18894,0.0582 -0.15961,0.41587 -0.8982,2.16944 -0.93206,2.21296 -0.0249,0.0321 -0.10338,0.0581 -0.17439,0.0581 -0.071,0 -0.13972,-0.0262 -0.15271,-0.0581 z m 1.99037,-0.0299 c -0.47179,-0.21427 -0.7145,-0.84389 -0.55912,-1.4504 0.15736,-0.6142 0.61532,-0.93339 1.13741,-0.79281 0.397,0.10698 0.65523,0.46606 0.69547,0.96732 l 0.0235,0.29254 h -0.73432 -0.73432 l 0.0296,0.15141 c 0.0342,0.17429 0.1464,0.34053 0.3149,0.46634 0.14875,0.11112 0.57715,0.11883 0.77966,0.014 0.14031,-0.0725 0.14349,-0.0717 0.21254,0.0619 0.0572,0.11063 0.0589,0.14478 0.01,0.18582 -0.24255,0.20131 -0.84336,0.25441 -1.17486,0.10393 z m 0.83634,-1.48417 c -0.0736,-0.30771 -0.23485,-0.4543 -0.49244,-0.44755 -0.22602,0.007 -0.43881,0.19203 -0.48512,0.42425 l -0.0301,0.15141 h 0.51919 0.51918 z m 2.51175,1.51059 c -0.22311,-0.0817 -0.24904,-0.12639 -0.17485,-0.30123 l 0.0651,-0.15335 0.15286,0.0807 c 0.21708,0.11467 0.64872,0.1132 0.77678,-0.003 0.10709,-0.0968 0.12448,-0.21766 0.0511,-0.35483 -0.0259,-0.0484 -0.21712,-0.17648 -0.4249,-0.28458 -0.42491,-0.22106 -0.55287,-0.37623 -0.55208,-0.66951 8.5e-4,-0.49365 0.44627,-0.74206 1.09844,-0.61335 l 0.27507,0.0542 0.014,0.19419 0.014,0.19419 -0.22379,-0.0691 c -0.24497,-0.0757 -0.57974,-0.061 -0.68964,0.0301 -0.10153,0.0843 -0.0856,0.24875 0.035,0.3602 0.0577,0.0533 0.24582,0.16304 0.41814,0.24389 0.38769,0.18189 0.52528,0.3553 0.52528,0.66205 0,0.27075 -0.11627,0.44238 -0.39696,0.58577 -0.23136,0.11822 -0.7011,0.13921 -0.9637,0.043 z m 3.38135,-0.011 c -0.25908,-0.0798 -0.56936,-0.37269 -0.65367,-0.61711 -0.15516,-0.44982 -0.0323,-1.03365 0.28427,-1.35016 0.23114,-0.23112 0.40823,-0.30284 0.80625,-0.32643 l 0.36106,-0.0215 v -0.52977 -0.52979 h 0.23294 0.23295 v 1.65208 1.6521 l -0.2414,0.0717 c -0.29618,0.088 -0.73457,0.0875 -1.0224,-8.5e-4 z m 0.76692,-0.31175 c 0.0709,-0.0519 0.0785,-0.14529 0.0671,-0.82694 l -0.0129,-0.76847 h -0.3065 c -0.26598,0 -0.32976,0.0177 -0.48247,0.13426 -0.0967,0.0738 -0.20737,0.20936 -0.24572,0.30116 -0.0965,0.23107 -0.0632,0.70935 0.0612,0.88021 0.19366,0.26577 0.71944,0.42581 0.91916,0.27978 z m 1.22559,0.29618 c -0.21076,-0.13893 -0.30878,-0.32524 -0.30894,-0.5871 -2.8e-4,-0.4688 0.29977,-0.70149 0.97124,-0.75327 l 0.37935,-0.0293 -8.5e-4,-0.14451 c -0.003,-0.36165 -0.44494,-0.51939 -0.8604,-0.30756 -0.10044,0.0512 -0.18827,0.0931 -0.19501,0.0931 -0.007,0 -0.0444,-0.0622 -0.0838,-0.13837 -0.0684,-0.13217 -0.0666,-0.14165 0.0397,-0.21127 0.28138,-0.18437 0.91671,-0.2248 1.19492,-0.076 0.31134,0.16647 0.34581,0.28904 0.37198,1.32258 l 0.0233,0.92019 -0.13164,-6e-5 c -0.0794,-5e-5 -0.17035,-0.0435 -0.22905,-0.1094 l -0.0974,-0.10941 -0.19024,0.10883 c -0.24706,0.1413 -0.68462,0.15196 -0.88248,0.0215 z m 0.91353,-0.37066 c 0.11835,-0.0679 0.12812,-0.0956 0.12812,-0.36625 v -0.29279 h -0.27258 c -0.46416,0 -0.65919,0.11443 -0.65919,0.38667 0,0.1459 0.15873,0.34734 0.2921,0.37073 0.15178,0.0266 0.3652,-0.0145 0.51155,-0.0984 z m 1.69306,0.38851 c -0.44027,-0.16785 -0.67574,-0.49107 -0.71511,-0.98155 -0.0609,-0.75919 0.45485,-1.32389 1.20921,-1.32389 h 0.31697 v -0.53576 -0.53578 h 0.20964 0.20966 v 1.65507 1.65504 l -0.12812,0.052 c -0.21005,0.0853 -0.8933,0.0944 -1.10225,0.0148 z m 0.70733,-0.28518 c 0.10556,-0.0284 0.10589,-0.0308 0.0933,-0.8263 l -0.0128,-0.79796 -0.18635,-0.0152 c -0.66764,-0.055 -1.10331,0.6342 -0.7902,1.24994 0.16138,0.31736 0.54434,0.48388 0.8961,0.38964 z m 1.54891,0.25094 c -0.27737,-0.14172 -0.44837,-0.37228 -0.53874,-0.72639 -0.22735,-0.89077 0.35537,-1.67737 1.11341,-1.50303 0.1244,0.0285 0.28558,0.0943 0.35819,0.14602 0.17453,0.12428 0.3576,0.51606 0.39661,0.8488 l 0.0313,0.26789 h -0.75661 -0.75661 l 0.0296,0.15141 c 0.0342,0.17428 0.1464,0.34052 0.31492,0.46633 0.14873,0.11111 0.57716,0.11884 0.77964,0.014 0.14034,-0.0726 0.14352,-0.0717 0.21255,0.0619 0.0572,0.11063 0.0589,0.14475 0.01,0.18581 -0.25782,0.21397 -0.85978,0.25793 -1.19394,0.0873 z m 0.83767,-1.43491 c 0,-0.31411 -0.33864,-0.55938 -0.63654,-0.46106 -0.17598,0.0581 -0.34136,0.27674 -0.34164,0.45172 -2.1e-4,0.10208 0.0128,0.10491 0.489,0.10491 0.46208,0 0.48918,-0.004 0.48918,-0.0954 z m -20.45237,0.35172 v -1.14142 h 0.18636 c 0.14965,0 0.18635,0.0168 0.18635,0.0854 0,0.14256 0.0403,0.14197 0.3108,-0.004 0.468,-0.25347 0.91351,-0.16853 1.12234,0.21397 0.0686,0.12577 0.0807,0.28291 0.0808,1.05622 l 2e-4,0.90848 -0.21845,0.014 -0.21844,0.014 -0.0145,-0.89182 c -0.0144,-0.88473 -0.0155,-0.89257 -0.12978,-0.98508 -0.15066,-0.1219 -0.4196,-0.0847 -0.67673,0.0934 l -0.18636,0.1291 -0.0128,0.82479 -0.0128,0.82478 h -0.20857 -0.20858 V 247.624 Z m 2.37603,0 v -1.14142 h 0.20963 0.20967 v 1.14142 1.14142 h -0.20967 -0.20963 z m 5.40427,0 v -1.14142 h 0.18635 c 0.16772,0 0.18636,0.0122 0.18636,0.11651 0,0.14558 0.0153,0.14508 0.21471,-0.008 0.10687,-0.0815 0.23654,-0.12974 0.38125,-0.14183 0.30797,-0.0257 0.35295,0.0163 0.26284,0.24561 -0.0697,0.17759 -0.0796,0.18401 -0.25773,0.16703 -0.14154,-0.0135 -0.22874,0.011 -0.36984,0.10447 l -0.18464,0.12215 v 0.83792 0.83793 h -0.20967 -0.20963 z m 3.40095,0 v -1.14142 h 0.20966 0.20964 v 1.14142 1.14142 h -0.20964 -0.20966 z m -8.69901,-1.60823 c -0.1132,-0.0455 -0.1775,-0.22057 -0.13282,-0.36134 0.0422,-0.13321 0.23983,-0.2104 0.36703,-0.14344 0.21092,0.111 0.2326,0.31154 0.0492,0.45573 -0.13641,0.10731 -0.13798,0.10753 -0.28348,0.049 z m 8.7202,-0.0668 c -0.14489,-0.14488 -0.14421,-0.23273 0.003,-0.37983 0.11836,-0.11835 0.24155,-0.12056 0.38358,-0.008 0.0993,0.0795 0.071,0.34703 -0.0453,0.42854 -0.14205,0.0995 -0.20789,0.0914 -0.34115,-0.0418 z"
       id="path306" /></g></svg>
